<?xml version="1.0" encoding="utf-8"?>
<!-- Generator: Adobe Illustrator 16.0.3, SVG Export Plug-In . SVG Version: 6.00 Build 0)  -->
<!DOCTYPE svg PUBLIC "-//W3C//DTD SVG 1.1//EN" "http://www.w3.org/Graphics/SVG/1.1/DTD/svg11.dtd">
<svg version="1.1" xmlns="http://www.w3.org/2000/svg" xmlns:xlink="http://www.w3.org/1999/xlink" x="0px" y="0px"
	 width="283.465px" height="283.464px" viewBox="0 0 283.465 283.464" enable-background="new 0 0 283.465 283.464"
	 xml:space="preserve">
<g id="Layer_2">
</g>
<g id="Layer_3" display="none">
</g>
<g id="Layer_1">
	<g>
		<path fill="#524757" d="M31.592,90.261h7v-2.959c0-0.148-0.01-0.297-0.029-0.443c-0.002-0.018-0.149-1.912,1.089-4.058
			c1.247-2.16,2.951-2.961,2.97-2.971c0.137-0.059,0.271-0.125,0.4-0.199l94.271-54.428c0.129-0.074,0.253-0.157,0.371-0.247
			c0.015-0.011,1.581-1.087,4.06-1.087c2.492,0,4.04,1.074,4.059,1.086c0.118,0.09,0.242,0.172,0.37,0.246l94.328,54.451
			c0.129,0.074,0.209,0.117,0.346,0.174c0.072,0.033,1.777,0.836,3.023,2.996c1.247,2.16,1.09,4.035,1.089,4.056
			c-0.019,0.148-0.028,0.297-0.028,0.445v2.938h7v-2.775c0.082-1.043,0.145-4.451-1.998-8.162c-2.142-3.713-5.129-5.365-6.07-5.814
			L149.79,19.218c-0.86-0.59-3.783-2.35-8.067-2.35c-4.285,0-7.209,1.761-8.069,2.352L39.66,73.488
			c-0.942,0.451-3.928,2.102-6.071,5.812c-2.142,3.711-2.079,7.123-1.997,8.162V90.261z"/>
		<path fill="#524757" d="M251.909,175.461h-7v20.697c0,0.148,0.003,0.24,0.021,0.387c0.008,0.08,0.165,1.959-1.083,4.119
			c-1.245,2.158-2.948,2.961-2.966,2.971c-0.138,0.057-0.271,0.123-0.4,0.197L146.21,258.26c-0.129,0.074-0.252,0.156-0.37,0.246
			c-0.015,0.012-1.58,1.086-4.06,1.086c-2.493,0-4.04-1.074-4.058-1.086c-0.119-0.09-0.242-0.172-0.371-0.246l-94.329-54.447
			c-0.128-0.074-0.261-0.139-0.398-0.197c-0.017-0.006-1.732-0.826-2.972-2.971c-1.246-2.162-1.09-4.039-1.09-4.061
			c0.02-0.146,0.029-0.295,0.029-0.443v-20.68h-7v20.52c-0.082,1.039-0.145,4.449,1.998,8.164c2.145,3.711,5.131,5.361,6.072,5.811
			l94.051,54.287c0.86,0.59,3.782,2.35,8.067,2.35c4.286,0,7.209-1.76,8.068-2.35l93.994-54.268c0.942-0.449,3.927-2.1,6.067-5.811
			c2.145-3.711,2.081-7.125,1.999-8.166V175.461z"/>
		<path fill="#ED1847" d="M22.287,90.261h3v-8.726c0-0.059-0.004-0.125-0.012-0.182c-0.002-0.029-0.304-2.855,1.502-5.984
			c1.808-3.129,4.406-4.281,4.424-4.289c0.059-0.023,0.115-0.053,0.171-0.084l104.261-60.196c0.05-0.028,0.105-0.065,0.151-0.101
			c0.023-0.017,2.322-1.692,5.936-1.692s5.908,1.673,5.924,1.685c0.051,0.038,0.104,0.074,0.159,0.105L252.13,71.019
			c0.056,0.031,0.112,0.061,0.171,0.084c0.025,0.012,2.617,1.162,4.424,4.291c1.806,3.129,1.504,5.953,1.501,5.973
			c-0.008,0.062-0.012,0.127-0.012,0.191v8.703h3v-8.626c0.062-0.668,0.244-4.041-1.892-7.74c-2.137-3.702-5.15-5.233-5.759-5.512
			L149.369,8.237c-0.548-0.388-3.378-2.23-7.649-2.23c-4.272,0-7.105,1.846-7.653,2.233L29.938,68.358
			c-0.608,0.279-3.622,1.811-5.759,5.51c-2.136,3.701-1.954,7.076-1.893,7.742V90.261z"/>
		<path fill="#ED1847" d="M261.214,175.461h-3v26.467c0,0.064,0.004,0.127,0.012,0.191c0.004,0.027,0.304,2.848-1.501,5.975
			c-1.808,3.131-4.404,4.281-4.422,4.289c-0.059,0.023-0.116,0.053-0.172,0.084l-104.262,60.197c-0.05,0.027-0.105,0.064-0.151,0.1
			c-0.023,0.018-2.32,1.691-5.936,1.691c-3.612,0-5.908-1.674-5.924-1.686c-0.051-0.039-0.104-0.074-0.159-0.105L31.374,212.447
			c-0.056-0.033-0.112-0.061-0.171-0.086c-0.025-0.01-2.619-1.162-4.426-4.289c-1.806-3.131-1.504-5.955-1.502-5.975
			c0.008-0.062,0.012-0.127,0.012-0.189v-26.447h-3v26.371c-0.062,0.666-0.243,4.039,1.893,7.74c2.137,3.699,5.151,5.23,5.76,5.51
			l104.193,60.141c0.548,0.389,3.379,2.232,7.649,2.232c4.274,0,7.106-1.846,7.653-2.232l104.129-60.119
			c0.609-0.279,3.621-1.809,5.758-5.51c2.136-3.699,1.953-7.076,1.892-7.742V175.461z"/>
		<path fill="#ED1847" d="M44.283,130.402c2.947-1.678,4.637-4.713,4.637-8.537c0-9.498-8.775-12.033-14.047-12.033
			c0,0-0.001,0-0.002,0H20.824v41.201h14.047c13.556,0,14.609-9.381,14.607-12.215C49.482,138.752,49.648,132.977,44.283,130.402z
			 M34.871,126.186H29.32v-7.857h5.592l0.127-0.002c1.25,0,5.328,0.287,5.328,3.986C40.367,126.121,35.094,126.184,34.871,126.186z
			 M34.871,142.537H29.32v-7.801h5.605c0.012-0.002,0.109-0.006,0.271-0.006c1.345,0,5.731,0.279,5.731,3.879
			C40.928,141.215,38.891,142.537,34.871,142.537z"/>
		<polygon fill="#ED1847" points="64.067,117.825 68.437,117.825 68.437,109.833 51.148,109.833 51.148,117.825 55.517,117.825 
			55.517,143.041 50.924,143.041 50.924,151.033 68.659,151.033 68.659,143.041 64.067,143.041 		"/>
		<path fill="#ED1847" d="M92.464,134.961h6.551v4.271c-2.288,2.459-5.398,3.809-8.799,3.809c-7.657,0-12.049-4.596-12.049-12.607
			c0-7.541,4.842-12.609,12.049-12.609c3.189,0,6.3,1.281,8.533,3.515l0.707,0.707l6-6l-0.695-0.707
			c-3.851-3.912-9.016-6.066-14.545-6.066c-11.551,0-20.6,9.294-20.6,21.16c0,12.656,7.94,21.158,19.76,21.158
			c4.252,0,7.444-0.939,10.321-3.094l0.246,2.703h7.624v-24.457H92.464V134.961z"/>
		<path fill="#ED1847" d="M155.178,130.402c2.948-1.678,4.638-4.713,4.638-8.537c0-4.871-2.3-8.49-6.65-10.468
			c-3.26-1.482-6.641-1.564-7.39-1.564c-0.003,0-0.006,0-0.009,0H131.72v41.201h14.047c13.556,0,14.609-9.381,14.608-12.215
			C160.378,138.752,160.543,132.977,155.178,130.402z M145.767,126.186h-5.551v-7.857h5.592l0.127-0.002
			c1.25,0,5.328,0.287,5.328,3.986C151.263,126.121,145.989,126.184,145.767,126.186z M145.767,142.537h-5.551v-7.801h5.604
			c0.013-0.002,0.11-0.006,0.271-0.006c1.345,0,5.732,0.279,5.732,3.879C151.823,141.215,149.785,142.537,145.767,142.537z"/>
		<path fill="#ED1847" d="M183.571,109.329c-6.286,0-11.574,2.297-15.293,6.639c-3.282,3.832-5.089,8.974-5.089,14.482
			c0,5.504,1.806,10.639,5.084,14.463c3.716,4.334,9.007,6.625,15.298,6.625c6.267,0,11.536-2.293,15.238-6.627
			c3.264-3.822,5.062-8.959,5.062-14.461c0-5.506-1.799-10.648-5.066-14.48C195.101,111.625,189.833,109.329,183.571,109.329z
			 M183.571,143.209c-3.618,0-6.647-1.357-8.758-3.926c-1.899-2.311-2.946-5.438-2.946-8.805c0-6.148,3.663-12.765,11.704-12.765
			c8.057,0,11.727,6.607,11.727,12.748c0,3.369-1.049,6.502-2.954,8.816C190.228,141.85,187.194,143.209,183.571,143.209z"/>
		<path fill="#ED1847" d="M226.36,127.621c-2.783-1.281-5.481-1.381-6.242-1.381c-2.27,0-4.713-1.246-4.713-3.982
			c0-3.27,2.435-4.433,4.713-4.433c1.345,0,4.484,0.365,4.601,3.738l0.032,0.967h8.48l-0.018-1.018
			c-0.121-7.091-5.628-12.238-13.096-12.238c-6.43,0-13.264,4.551-13.264,12.984c0,4.957,2.472,8.838,6.972,10.934
			c2.819,1.273,5.508,1.377,6.239,1.377c0.004,0,0.007,0,0.01,0c1.917,0.082,4.754,1.547,4.754,4.432
			c0,2.625-2.427,4.041-4.711,4.041c-2.112,0-4.614-1.023-4.714-3.906l-0.032-0.967h-8.533l0.016,1.016
			c0.111,7.342,5.308,12.211,13.239,12.408h0.024c6.563,0,13.207-4.324,13.207-12.592
			C233.325,133.803,230.786,129.654,226.36,127.621z"/>
		<path fill="#ED1847" d="M255.677,127.621c-2.783-1.281-5.481-1.381-6.242-1.381c-2.27,0-4.713-1.246-4.713-3.982
			c0-3.27,2.435-4.433,4.713-4.433c1.345,0,4.484,0.365,4.601,3.738l0.032,0.967h8.48l-0.018-1.018
			c-0.121-7.091-5.628-12.238-13.096-12.238c-6.43,0-13.264,4.551-13.264,12.984c0,4.957,2.472,8.838,6.972,10.934
			c2.819,1.273,5.508,1.377,6.239,1.377c0.004,0,0.007,0,0.01,0c1.917,0.082,4.754,1.547,4.754,4.432
			c0,2.625-2.427,4.041-4.711,4.041c-2.112,0-4.614-1.023-4.714-3.906l-0.032-0.967h-8.533l0.016,1.016
			c0.111,7.342,5.308,12.211,13.239,12.408h0.024c6.563,0,13.207-4.324,13.207-12.592
			C262.642,133.803,260.103,129.654,255.677,127.621z"/>
		<path fill="#524757" d="M100.908,187.871h-4.439l-2.761-15.117l-2.76,15.117h-4.439l-4.47-21.357h4.68l2.01,15.09l2.64-15.09
			h4.681l2.64,15.09l2.01-15.09h4.68L100.908,187.871z"/>
		<path fill="#524757" d="M108.544,187.871v-21.357h9.839v3.84h-5.579v4.83h4.8v3.84h-4.8v5.008h5.579v3.84H108.544z"/>
		<path fill="#524757" d="M132.864,186.461c-0.9,0.93-2.31,1.41-4.439,1.41h-6.18v-21.357h6.18c2.13,0,3.539,0.48,4.47,1.379
			c1.02,0.99,1.409,2.551,1.409,4.59c0,1.381-0.119,2.551-1.02,3.451c-0.27,0.27-0.57,0.51-0.99,0.719
			c0.391,0.211,0.69,0.48,0.96,0.75c0.99,1.111,1.05,2.701,1.05,3.9C134.304,183.611,133.944,185.352,132.864,186.461z
			 M127.794,170.354h-1.289v4.561h1.289c1.681,0,2.25-0.691,2.25-2.281C130.044,171.014,129.504,170.354,127.794,170.354z
			 M127.854,178.514h-1.35v5.518h1.35c1.71,0,2.189-0.809,2.189-2.758C130.044,179.322,129.504,178.514,127.854,178.514z"/>
		<path fill="#524757" d="M148.395,186.521c-0.96,0.93-2.58,1.59-4.65,1.59c-2.1,0-3.659-0.6-4.619-1.561
			c-1.05-1.049-1.41-2.549-1.41-4.738h4.26c0,0.871,0.06,1.5,0.45,1.949c0.24,0.27,0.66,0.51,1.319,0.51
			c0.66,0,1.08-0.18,1.351-0.539c0.3-0.361,0.42-0.93,0.42-1.799c0-2.041-0.33-2.4-1.86-3.031l-2.699-1.109
			c-2.16-0.9-3.061-2.039-3.061-5.369c0-1.98,0.63-3.631,1.92-4.74c1.021-0.871,2.311-1.35,3.93-1.35c1.891,0,3.271,0.479,4.2,1.35
			c1.17,1.08,1.65,2.789,1.65,4.949h-4.26c0-0.75,0-1.439-0.36-1.92c-0.24-0.33-0.6-0.539-1.23-0.539c-0.6,0-0.989,0.24-1.229,0.57
			c-0.27,0.359-0.36,0.809-0.36,1.529c0,1.35,0.24,1.74,1.471,2.25l2.67,1.08c2.699,1.109,3.479,2.309,3.479,6.18
			C149.774,183.941,149.504,185.441,148.395,186.521z"/>
		<path fill="#524757" d="M153.627,187.871v-21.357h4.26v21.357H153.627z"/>
		<path fill="#524757" d="M169.083,170.354v17.518h-4.26v-17.518h-3.601v-3.84h11.46v3.84H169.083z"/>
		<path fill="#524757" d="M176.034,187.871v-21.357h9.839v3.84h-5.579v4.83h4.8v3.84h-4.8v5.008h5.579v3.84H176.034z"/>
		<path fill="#524757" d="M199.683,186.521c-0.96,0.93-2.58,1.59-4.65,1.59c-2.1,0-3.659-0.6-4.619-1.561
			c-1.05-1.049-1.41-2.549-1.41-4.738h4.26c0,0.871,0.061,1.5,0.45,1.949c0.24,0.27,0.66,0.51,1.319,0.51
			c0.66,0,1.08-0.18,1.351-0.539c0.3-0.361,0.42-0.93,0.42-1.799c0-2.041-0.33-2.4-1.86-3.031l-2.699-1.109
			c-2.16-0.9-3.061-2.039-3.061-5.369c0-1.98,0.63-3.631,1.92-4.74c1.021-0.871,2.311-1.35,3.93-1.35c1.891,0,3.271,0.479,4.2,1.35
			c1.17,1.08,1.65,2.789,1.65,4.949h-4.26c0-0.75,0-1.439-0.36-1.92c-0.24-0.33-0.6-0.539-1.23-0.539c-0.6,0-0.989,0.24-1.229,0.57
			c-0.27,0.359-0.36,0.809-0.36,1.529c0,1.35,0.24,1.74,1.471,2.25l2.67,1.08c2.699,1.109,3.479,2.309,3.479,6.18
			C201.062,183.941,200.792,185.441,199.683,186.521z"/>
		<rect x="55.397" y="175.105" fill="#524757" width="21.26" height="3"/>
		<rect x="206.844" y="175.105" fill="#524757" width="21.26" height="3"/>
		<path fill="#524757" d="M95.645,85.935l-3.474-4.412l-1.966,1.549l3.474,4.41l-1.584,1.248l-7.927-10.068l1.584-1.246l3.34,4.242
			l1.965-1.549l-3.341-4.24l1.584-1.248l7.928,10.066L95.645,85.935z"/>
		<path fill="#524757" d="M104.679,80.007l-1.743-1.918l-2.557,1.514l0.86,2.441l-1.828,1.082l-3.823-12.635l1.689-1l9.213,9.442
			L104.679,80.007z M98.003,72.662l1.79,5.174l1.891-1.119L98.003,72.662z"/>
		<path fill="#524757" d="M113.569,75.789l-5.755-5.834l2.97,7.014l-1.857,0.785l-4.999-11.807l1.659-0.701l5.737,5.842
			l-2.969-7.014l1.856-0.787l4.999,11.807L113.569,75.789z"/>
		<path fill="#524757" d="M123.658,71.455c-0.345,0.711-0.933,1.357-2.112,1.682l-3.141,0.865l-3.4-12.356l3.141-0.863
			c1.181-0.326,2.017-0.07,2.677,0.363c1.201,0.771,1.666,2.529,2.32,4.906S124.297,70.177,123.658,71.455z M119.704,62.778
			c-0.272-0.242-0.66-0.359-1.128-0.23l-1.145,0.316l2.435,8.848l1.145-0.314c0.469-0.129,0.741-0.428,0.851-0.775
			c0.208-0.672-0.075-1.903-0.667-4.053C120.603,64.417,120.226,63.251,119.704,62.778z"/>
		<path fill="#524757" d="M127.122,67.45l-0.288-1.795l3.59-0.576l0.287,1.795L127.122,67.45z"/>
		<path fill="#524757" d="M139.988,69.747c-0.548,0.553-1.217,0.875-2.17,0.926c-1.223,0.062-1.966-0.366-2.537-0.95
			c-1.01-1.029-1.089-2.881-1.22-5.398c-0.133-2.516-0.25-4.404,0.646-5.533c0.507-0.64,1.202-1.145,2.424-1.209
			c0.972-0.05,1.67,0.201,2.273,0.711c0.66,0.56,1.07,1.513,1.166,2.642l-2.014,0.107c-0.043-0.469-0.138-0.914-0.371-1.226
			c-0.194-0.278-0.474-0.444-0.959-0.418c-0.484,0.025-0.763,0.238-0.927,0.535c-0.347,0.63-0.35,1.929-0.228,4.267
			c0.122,2.336,0.263,3.627,0.673,4.219c0.193,0.279,0.492,0.461,0.978,0.436s0.764-0.221,0.929-0.518
			c0.198-0.334,0.246-0.807,0.239-1.273l2.014-0.107C140.93,68.11,140.604,69.12,139.988,69.747z"/>
		<path fill="#524757" d="M148.85,70.74l-1.294-5.364l-1.132-0.08l-0.375,5.242l-2.012-0.145l0.915-12.784l3.233,0.231
			c2.334,0.166,3.187,1.365,2.997,4.003c-0.113,1.582-0.517,2.689-1.729,3.234l1.498,5.809L148.85,70.74z M148.073,59.657
			l-1.239-0.09l-0.28,3.915l1.238,0.09c1.078,0.076,1.304-0.811,1.38-1.869C149.247,60.642,149.15,59.733,148.073,59.657z"/>
		<path fill="#524757" d="M159.367,72.447l0.008-2.592l-2.908-0.607l-1.013,2.383l-2.08-0.434l5.704-11.907L161,59.691l0.429,13.188
			L159.367,72.447z M159.397,62.521l-2.172,5.027l2.15,0.449L159.397,62.521z"/>
		<path fill="#524757" d="M169.495,63.938l-1.171,3.441l2.743,0.934l-0.585,1.721l-2.744-0.934l-1.785,5.249l-1.909-0.648
			l4.129-12.133l5.095,1.734l-0.586,1.721L169.495,63.938z"/>
		<path fill="#524757" d="M180.033,68.259l-4.717,9.932l-1.82-0.865l4.717-9.932l-1.935-0.918l0.779-1.643l5.705,2.709l-0.78,1.643
			L180.033,68.259z"/>
		<path fill="#524757" d="M179.787,80.535l6.765-10.883l4.569,2.842l-0.959,1.543l-2.858-1.775l-1.919,3.086l2.461,1.531
			l-0.96,1.543l-2.461-1.529l-1.967,3.164l2.859,1.777l-0.96,1.543L179.787,80.535z"/>
		<path fill="#524757" d="M191.964,87.845c-0.779,0.137-1.647,0.043-2.604-0.721l-2.544-2.035l8-10.007l2.544,2.033
			c0.957,0.764,1.241,1.59,1.278,2.379c0.081,1.426-1.067,2.834-2.606,4.759C194.492,86.179,193.371,87.61,191.964,87.845z
			 M196.658,79.548c0.037-0.361-0.096-0.744-0.476-1.047l-0.928-0.742l-5.729,7.169l0.928,0.742c0.38,0.303,0.781,0.348,1.127,0.232
			c0.666-0.229,1.494-1.18,2.888-2.923C195.861,81.238,196.583,80.248,196.658,79.548z"/>
		<path fill="#524757" d="M115.899,224.615l-0.693-1.178c-0.584,0.195-1.256,0.209-2.072-0.076c-1.156-0.402-1.682-1.082-1.99-1.838
			c-0.545-1.334,0.09-3.096,0.92-5.475c0.832-2.381,1.432-4.154,2.689-4.859c0.711-0.4,1.545-0.605,2.701-0.201
			s1.682,1.084,1.99,1.84c0.545,1.334-0.09,3.096-0.92,5.475c-0.695,1.99-1.217,3.486-2.078,4.365l0.705,1.201L115.899,224.615z
			 M117.612,213.484c-0.074-0.332-0.299-0.619-0.758-0.779s-0.795-0.068-1.061,0.145c-0.576,0.447-1.049,1.637-1.826,3.863
			s-1.148,3.451-0.975,4.16c0.074,0.33,0.281,0.613,0.74,0.773c0.17,0.059,0.295,0.084,0.438,0.057l-0.445-0.746l1.252-0.744
			l0.352,0.58c0.383-0.611,0.721-1.521,1.291-3.154C117.397,215.412,117.784,214.193,117.612,213.484z"/>
		<path fill="#524757" d="M126.345,225.918c-0.729,0.49-1.584,0.623-2.518,0.426s-1.68-0.666-2.148-1.408
			c-0.428-0.68-0.578-1.539-0.377-2.488l1.99-9.455l1.973,0.414l-2.014,9.561c-0.189,0.898,0.281,1.457,0.951,1.598
			s1.309-0.184,1.496-1.082l2.014-9.561l1.973,0.416l-1.992,9.455C127.493,224.744,127.009,225.469,126.345,225.918z"/>
		<path fill="#524757" d="M136.845,227.941l-0.32-2.572l-2.959-0.232l-0.703,2.49l-2.117-0.168l4.15-12.527l1.955,0.154
			l2.094,13.021L136.845,227.941z M135.62,218.096l-1.518,5.26l2.189,0.172L135.62,218.096z"/>
		<path fill="#524757" d="M142.94,228.078l-0.521-12.809l2.016-0.082l0.447,10.99l3.365-0.137l0.072,1.818L142.94,228.078z"/>
		<path fill="#524757" d="M152.214,227.436l-1.684-12.699l1.998-0.266l1.684,12.699L152.214,227.436z"/>
		<path fill="#524757" d="M159.679,214.922l2.461,10.721l-1.965,0.451l-2.461-10.721l-2.088,0.479l-0.408-1.771l6.16-1.414
			l0.406,1.773L159.679,214.922z"/>
		<path fill="#524757" d="M170.251,217.922l1.699,4.723l-1.898,0.684l-1.697-4.725l-4.975-6.494l2.102-0.756l2.902,4.352
			l-0.516-5.209l2.084-0.75L170.251,217.922z"/>
	</g>
</g>
</svg>
