<?xml version="1.0" encoding="utf-8"?>
<!-- Generator: Adobe Illustrator 16.0.3, SVG Export Plug-In . SVG Version: 6.00 Build 0)  -->
<!DOCTYPE svg PUBLIC "-//W3C//DTD SVG 1.1//EN" "http://www.w3.org/Graphics/SVG/1.1/DTD/svg11.dtd">
<svg version="1.1" xmlns="http://www.w3.org/2000/svg" xmlns:xlink="http://www.w3.org/1999/xlink" x="0px" y="0px"
	 viewBox="0 0 99.213 99.212" enable-background="new 0 0 99.213 99.212" xml:space="preserve">
<g id="Layer_2">
</g>
<g id="Layer_3">
</g>
<g id="Layer_1">
	<g>
		<g>
			<path fill="#524757" d="M12.323,29.845c-0.001-0.01-0.001-0.021-0.002-0.03c0-0.006-0.054-0.682,0.388-1.446
				c0.444-0.769,1.053-1.056,1.059-1.059c0.049-0.021,0.098-0.045,0.143-0.071L47.508,7.841c0.045-0.026,0.072-0.043,0.115-0.075
				c0.022-0.016,0.574-0.399,1.463-0.399s1.439,0.382,1.446,0.387c0.042,0.032,0.087,0.062,0.133,0.088l33.616,19.405
				c0.046,0.026,0.074,0.042,0.123,0.062c0.026,0.012,0.634,0.299,1.077,1.067c0.444,0.77,0.389,1.438,0.389,1.445
				c-0.001,0.008-0.001,0.017-0.001,0.024h2.494c0.012-0.505-0.059-1.569-0.721-2.716c-0.764-1.322-1.828-1.911-2.163-2.071
				L51.961,5.708c-0.307-0.21-1.349-0.838-2.875-0.838c-1.527,0-2.569,0.628-2.876,0.839l-33.497,19.34
				c-0.336,0.16-1.4,0.749-2.164,2.072c-0.665,1.151-0.732,2.222-0.721,2.724H12.323z"/>
			<path fill="#524757" d="M88.354,56.086h-2.495v12.682c0,0.054,0.001,0.086,0.008,0.139c0.003,0.028,0.059,0.698-0.386,1.467
				c-0.443,0.77-1.051,1.056-1.057,1.059c-0.049,0.021-0.097,0.045-0.143,0.071L50.686,90.9c-0.047,0.026-0.091,0.056-0.132,0.087
				c-0.006,0.004-0.564,0.387-1.447,0.387c-0.889,0-1.44-0.382-1.445-0.387c-0.044-0.031-0.087-0.061-0.133-0.087L13.911,71.496
				c-0.046-0.027-0.075-0.042-0.123-0.062c-0.025-0.012-0.634-0.298-1.078-1.067c-0.444-0.77-0.389-1.44-0.389-1.446
				c0.007-0.052,0.01-0.106,0.01-0.159V56.086H9.837v12.619c-0.028,0.37-0.051,1.586,0.712,2.909
				c0.766,1.322,1.829,1.911,2.165,2.071L46.23,93.032c0.308,0.211,1.349,0.837,2.876,0.837c1.528,0,2.569-0.627,2.875-0.837
				l33.498-19.34c0.337-0.16,1.399-0.749,2.163-2.072c0.764-1.322,0.741-2.539,0.712-2.909V56.086z"/>
		</g>
		<g>
			<path fill="#ED1847" d="M14.359,41.988c1.051-0.599,1.653-1.681,1.653-3.043c0-1.736-0.819-3.026-2.37-3.731
				c-1.166-0.53-2.371-0.568-2.637-0.557H6v14.683h5.006c4.831,0,5.206-3.342,5.206-4.353
				C16.213,44.963,16.271,42.905,14.359,41.988z M11.006,40.485H9.027v-2.8h1.992l0.046-0.001c0.445,0,1.898,0.103,1.898,1.421
				C12.964,40.462,11.085,40.484,11.006,40.485z M11.006,46.312H9.027v-2.779l1.998-0.001c0.004,0,0.039-0.001,0.096-0.001
				c0.479,0,2.043,0.099,2.043,1.382C13.164,45.841,12.438,46.312,11.006,46.312z"/>
			<polygon fill="#ED1847" points="21.411,37.505 22.968,37.505 22.968,34.657 16.807,34.657 16.807,37.505 18.363,37.505 
				18.363,46.491 16.727,46.491 16.727,49.339 23.047,49.339 23.047,46.491 21.411,46.491 			"/>
			<path fill="#ED1847" d="M31.53,43.612h2.335v1.522c-0.815,0.876-1.924,1.357-3.137,1.357c-2.728,0-4.293-1.638-4.293-4.493
				c0-2.688,1.726-4.494,4.293-4.494c1.138,0,2.246,0.457,3.041,1.252l0.253,0.253l2.138-2.139l-0.247-0.251
				c-1.372-1.395-3.213-2.162-5.185-2.162c-4.115,0-7.34,3.312-7.34,7.541c0,4.51,2.829,7.541,7.041,7.541
				c1.516,0,2.654-0.334,3.679-1.103l0.087,0.963h2.719v-8.715H31.53V43.612z"/>
			<path fill="#ED1847" d="M53.881,41.988c1.05-0.599,1.652-1.681,1.652-3.043c0-1.736-0.819-3.026-2.37-3.731
				c-1.161-0.528-2.365-0.557-2.632-0.557h-0.004h-5.007v14.683h5.007c4.83,0,5.206-3.342,5.205-4.353
				C55.733,44.963,55.794,42.905,53.881,41.988z M50.527,40.485h-1.979v-2.8h1.993l0.046-0.001c0.445,0,1.898,0.103,1.898,1.421
				C52.486,40.462,50.607,40.484,50.527,40.485z M50.527,46.312h-1.979v-2.779l1.997-0.001c0.006,0,0.04-0.001,0.097-0.001
				c0.479,0,2.044,0.099,2.044,1.382C52.687,45.841,51.96,46.312,50.527,46.312z"/>
			<path fill="#ED1847" d="M64,34.477c-2.24,0-4.125,0.818-5.45,2.366c-1.169,1.366-1.813,3.199-1.813,5.162
				c0,1.96,0.643,3.791,1.812,5.154c1.324,1.545,3.21,2.361,5.452,2.361c2.234,0,4.11-0.816,5.431-2.361
				c1.163-1.363,1.804-3.193,1.804-5.154c0-1.963-0.642-3.796-1.806-5.161C68.108,35.295,66.232,34.477,64,34.477z M64,46.551
				c-1.289,0-2.369-0.483-3.121-1.398c-0.678-0.823-1.05-1.938-1.05-3.139c0-2.191,1.306-4.549,4.171-4.549
				c2.871,0,4.18,2.355,4.18,4.543c0,1.201-0.374,2.317-1.053,3.141C66.372,46.067,65.292,46.551,64,46.551z"/>
			<path fill="#ED1847" d="M79.249,40.996c-0.992-0.457-1.954-0.491-2.225-0.491c-0.809,0-1.679-0.444-1.679-1.42
				c0-1.164,0.867-1.579,1.679-1.579c0.479,0,1.598,0.129,1.639,1.332l0.013,0.344h3.021l-0.006-0.362
				c-0.043-2.528-2.005-4.362-4.667-4.362c-2.292,0-4.728,1.622-4.728,4.626c0,1.767,0.882,3.15,2.486,3.897
				c1.004,0.455,1.962,0.491,2.223,0.491h0.003c0.685,0.028,1.695,0.551,1.695,1.58c0,0.936-0.865,1.439-1.68,1.439
				c-0.753,0-1.644-0.365-1.68-1.392l-0.011-0.344h-3.042l0.005,0.362c0.04,2.616,1.893,4.352,4.719,4.422h0.009
				c2.339,0,4.707-1.542,4.707-4.487C81.731,43.199,80.826,41.721,79.249,40.996z"/>
			<path fill="#ED1847" d="M89.696,40.996c-0.991-0.457-1.952-0.491-2.224-0.491c-0.81,0-1.68-0.444-1.68-1.42
				c0-1.164,0.868-1.579,1.68-1.579c0.479,0,1.598,0.129,1.639,1.332l0.012,0.344h3.021l-0.005-0.362
				c-0.043-2.528-2.005-4.362-4.667-4.362c-2.292,0-4.727,1.622-4.727,4.626c0,1.767,0.881,3.15,2.484,3.897
				c1.005,0.455,1.962,0.491,2.224,0.491h0.003c0.684,0.028,1.695,0.551,1.695,1.58c0,0.936-0.866,1.439-1.68,1.439
				c-0.753,0-1.644-0.365-1.68-1.392l-0.012-0.344H82.74l0.006,0.362c0.039,2.616,1.892,4.352,4.718,4.422h0.009
				c2.339,0,4.707-1.542,4.707-4.487C92.18,43.199,91.274,41.721,89.696,40.996z"/>
		</g>
		<g>
			<path fill="#524757" d="M28.331,66.59h-2.217l-1.378-7.547l-1.378,7.547h-2.216l-2.231-10.663h2.336l1.003,7.533l1.318-7.533
				h2.336l1.317,7.533l1.005-7.533h2.335L28.331,66.59z"/>
			<path fill="#524757" d="M32.215,66.59V55.928h4.912v1.917h-2.785v2.41h2.396v1.917h-2.396v2.502h2.785v1.917H32.215z"/>
			<path fill="#524757" d="M44.43,65.886c-0.45,0.465-1.153,0.705-2.217,0.705h-3.086V55.928h3.086c1.063,0,1.767,0.24,2.23,0.688
				c0.51,0.495,0.705,1.273,0.705,2.292c0,0.688-0.061,1.273-0.51,1.722c-0.134,0.135-0.284,0.254-0.493,0.359
				c0.193,0.104,0.344,0.239,0.479,0.375c0.494,0.554,0.524,1.347,0.524,1.946C45.148,64.463,44.969,65.333,44.43,65.886z
				 M41.898,57.845h-0.644v2.276h0.644c0.838,0,1.123-0.345,1.123-1.138C43.021,58.174,42.752,57.845,41.898,57.845z M41.928,61.918
				h-0.673v2.756h0.673c0.854,0,1.094-0.405,1.094-1.378C43.021,62.322,42.752,61.918,41.928,61.918z"/>
			<path fill="#524757" d="M52.258,65.917c-0.479,0.464-1.288,0.794-2.32,0.794c-1.049,0-1.828-0.3-2.307-0.779
				c-0.524-0.525-0.704-1.273-0.704-2.367h2.126c0,0.435,0.03,0.75,0.226,0.974c0.12,0.135,0.329,0.255,0.659,0.255
				c0.328,0,0.539-0.09,0.673-0.27c0.15-0.18,0.21-0.464,0.21-0.898c0-1.019-0.164-1.198-0.929-1.513l-1.348-0.553
				c-1.078-0.45-1.528-1.018-1.528-2.681c0-0.988,0.315-1.812,0.959-2.366c0.51-0.435,1.153-0.674,1.963-0.674
				c0.943,0,1.631,0.24,2.097,0.674c0.583,0.539,0.823,1.393,0.823,2.471H50.73c0-0.375,0-0.719-0.179-0.958
				c-0.12-0.166-0.301-0.27-0.614-0.27c-0.3,0-0.495,0.12-0.614,0.284c-0.136,0.18-0.18,0.405-0.18,0.765
				c0,0.673,0.119,0.868,0.733,1.123l1.332,0.539c1.349,0.554,1.738,1.153,1.738,3.084C52.947,64.628,52.812,65.377,52.258,65.917z"
				/>
			<path fill="#524757" d="M54.941,66.59V55.928h2.128V66.59H54.941z"/>
			<path fill="#524757" d="M62.732,57.845v8.746h-2.127v-8.746h-1.797v-1.917h5.721v1.917H62.732z"/>
			<path fill="#524757" d="M66.276,66.59V55.928h4.912v1.917h-2.785v2.41H70.8v1.917h-2.396v2.502h2.785v1.917H66.276z"/>
			<path fill="#524757" d="M78.156,65.917c-0.479,0.464-1.289,0.794-2.321,0.794c-1.049,0-1.827-0.3-2.307-0.779
				c-0.524-0.525-0.704-1.273-0.704-2.367h2.126c0,0.435,0.031,0.75,0.226,0.974c0.12,0.135,0.329,0.255,0.659,0.255
				c0.329,0,0.539-0.09,0.673-0.27c0.15-0.18,0.211-0.464,0.211-0.898c0-1.019-0.165-1.198-0.93-1.513l-1.348-0.553
				c-1.078-0.45-1.527-1.018-1.527-2.681c0-0.988,0.314-1.812,0.958-2.366c0.51-0.435,1.153-0.674,1.963-0.674
				c0.943,0,1.632,0.24,2.097,0.674c0.584,0.539,0.823,1.393,0.823,2.471h-2.127c0-0.375,0-0.719-0.179-0.958
				c-0.12-0.166-0.301-0.27-0.614-0.27c-0.3,0-0.494,0.12-0.614,0.284c-0.135,0.18-0.18,0.405-0.18,0.765
				c0,0.673,0.12,0.868,0.734,1.123l1.332,0.539c1.348,0.554,1.738,1.153,1.738,3.084C78.846,64.628,78.71,65.377,78.156,65.917z"/>
		</g>
		<g>
			<path fill="#ED1847" d="M6.521,29.845H7.59v-1.928c0-0.021-0.002-0.044-0.003-0.065c-0.002-0.01-0.109-1.017,0.534-2.132
				c0.645-1.115,1.57-1.525,1.576-1.528c0.021-0.009,0.042-0.019,0.062-0.031L46.916,2.709c0.018-0.011,0.037-0.024,0.053-0.036
				c0.01-0.006,0.828-0.604,2.115-0.604c1.289,0,2.106,0.596,2.112,0.6c0.018,0.014,0.037,0.026,0.057,0.039l37.181,21.461
				c0.017,0.01,0.039,0.021,0.058,0.029c0.01,0.003,0.936,0.414,1.579,1.529c0.644,1.116,0.537,2.123,0.535,2.129
				c-0.003,0.022-0.004,0.044-0.004,0.067v1.92h1.069v-1.892c0.022-0.239,0.086-1.44-0.675-2.759
				c-0.762-1.319-1.836-1.865-2.053-1.965L51.811,1.795C51.615,1.657,50.607,1,49.084,1c-1.522,0-2.532,0.658-2.727,0.796
				L9.248,23.222c-0.217,0.099-1.291,0.645-2.052,1.963c-0.762,1.319-0.697,2.522-0.676,2.76V29.845z"/>
			<path fill="#ED1847" d="M91.671,56.086h-1.069v14.738c0,0.022,0.001,0.045,0.004,0.067c0.002,0.01,0.108,1.015-0.535,2.129
				c-0.644,1.116-1.569,1.526-1.575,1.529c-0.021,0.009-0.041,0.019-0.062,0.031L51.277,96.033c-0.02,0.01-0.039,0.023-0.055,0.035
				c-0.009,0.006-0.827,0.604-2.115,0.604c-1.287,0-2.105-0.597-2.111-0.602c-0.018-0.013-0.038-0.026-0.058-0.037L9.76,74.573
				c-0.019-0.011-0.039-0.021-0.059-0.029c-0.009-0.004-0.936-0.415-1.58-1.53c-0.644-1.115-0.536-2.122-0.535-2.128
				c0.003-0.023,0.004-0.046,0.004-0.069v-14.73H6.521v14.703c-0.021,0.238-0.086,1.44,0.676,2.759
				c0.761,1.319,1.835,1.865,2.053,1.964l37.132,21.433c0.195,0.139,1.204,0.796,2.727,0.796s2.532-0.658,2.727-0.796L88.943,75.52
				c0.219-0.099,1.291-0.644,2.053-1.964c0.761-1.318,0.697-2.521,0.675-2.759V56.086z"/>
		</g>
	</g>
</g>
</svg>
