<?xml version="1.0" encoding="utf-8"?>
<!-- Generator: Adobe Illustrator 16.0.3, SVG Export Plug-In . SVG Version: 6.00 Build 0)  -->
<!DOCTYPE svg PUBLIC "-//W3C//DTD SVG 1.0//EN" "http://www.w3.org/TR/2001/REC-SVG-20010904/DTD/svg10.dtd">
<svg version="1.0" xmlns="http://www.w3.org/2000/svg" xmlns:xlink="http://www.w3.org/1999/xlink" x="0px" y="0px"
	 viewBox="0 0 449.364 133.135" enable-background="new 0 0 449.364 133.135"
	 xml:space="preserve">
<g id="Background">
</g>
<g id="Layer_5">
</g>
<g id="Layer_7">
</g>
<g id="Layer_8">
</g>
<g id="logo">
	<g opacity="0.3">
		<g>
			<path fill="#4B0028" d="M242.511,29.873c-1.392-0.188-6.172-3.179-6.489-5.235c-0.331-2.152,3.052-11.22,4.166-12.007
				c0.702,0.164,3.133,1.212,4.521,3.279c0.871,1.297,1.128,2.727,0.765,4.25c-0.111,0.463-0.239,1.043-0.381,1.688
				C244.624,23.969,243.384,29.587,242.511,29.873z"/>
			<path fill="#231F20" d="M240.343,13.197c0.845,0.293,2.799,1.279,3.949,2.992c0.79,1.177,1.023,2.474,0.694,3.855
				c-0.111,0.466-0.24,1.049-0.383,1.698c-0.406,1.842-1.455,6.593-2.24,7.588c-1.418-0.415-5.589-3.094-5.847-4.767
				C236.238,22.756,239.136,14.726,240.343,13.197 M240.148,12.118c-1.222,0-4.981,10.247-4.621,12.596
				c0.365,2.37,5.475,5.475,6.936,5.657c0.018,0.002,0.035,0.003,0.052,0.003c1.44,0,2.761-7.245,3.444-10.098
				c1.247-5.236-4.591-7.971-5.779-8.156C240.169,12.119,240.159,12.118,240.148,12.118L240.148,12.118z"/>
		</g>
		<g>
			<path fill="#4B0028" d="M265.237,57.771c-0.544-0.324-1.81-2.507-2.932-4.442c-1.483-2.56-3.33-5.745-5.403-8.309
				c-1.69-2.091-3.678-4.072-5.433-5.82c-2.298-2.29-4.675-4.657-4.501-5.64c2.953-16.712,8.481-24.657,10.634-27.221
				c0.022,2.785,0.688,9.762,5.565,21.665c1.014,2.471,2.466,4.862,3.633,6.784c1.098,1.808,2.046,3.369,2.177,4.236
				C269.849,44.745,266.413,56.59,265.237,57.771z"/>
			<path fill="#231F20" d="M257.159,7.702c0.229,3.457,1.306,10.142,5.547,20.492c1.029,2.506,2.493,4.917,3.668,6.853
				c1.025,1.688,1.994,3.283,2.11,4.052c0.801,5.268-2.077,15.408-3.332,17.87c-0.607-0.774-1.591-2.471-2.414-3.891
				c-1.492-2.574-3.35-5.778-5.447-8.372c-1.707-2.112-3.706-4.104-5.469-5.86c-1.877-1.87-4.447-4.431-4.361-5.199
				c1.91-10.81,4.902-17.825,7.076-21.806C255.522,10.035,256.433,8.675,257.159,7.702 M258.157,5h0.005H258.157z M258.157,5
				c0,0-7.907,7.117-11.681,28.472c-0.362,2.048,5.797,6.614,10.037,11.862c4.196,5.189,7.459,12.966,8.765,12.966
				c0.015,0,0.029-0.001,0.044-0.003c1.277-0.183,5.066-13.327,4.15-19.35c-0.297-1.959-3.871-6.333-5.842-11.134
				C257.199,12.12,258.157,5,258.157,5L258.157,5z"/>
		</g>
		<g>
			<path fill="#4B0028" d="M272.223,34.217c-1.552-0.828-6.594-13.732-6.397-17.647c0.137-2.749,14.303-10.267,18.124-10.267
				c0.346,0,0.441,0.073,0.442,0.074c0.575,0.906-1.261,4.136-3.204,7.555c-1.62,2.85-3.455,6.08-4.874,9.493
				c-1.019,2.448-1.833,4.812-2.488,6.713C273.209,31.926,272.574,33.771,272.223,34.217z"/>
			<path fill="#231F20" d="M283.95,6.803c0.019,0,0.036,0,0.052,0.001c0.079,1.025-1.831,4.385-3.249,6.881
				c-1.627,2.862-3.47,6.107-4.901,9.547c-1.024,2.462-1.842,4.835-2.499,6.742c-0.43,1.248-0.902,2.619-1.243,3.391
				c-0.676-0.914-1.894-3.225-3.363-7.276c-1.499-4.135-2.496-8.04-2.423-9.495C266.439,14.307,279.946,6.803,283.95,6.803
				 M283.95,5.803c-3.857,0-18.46,7.459-18.624,10.742c-0.183,3.647,5.049,18.206,6.971,18.206c0.805,0,2.058-5.314,4.479-11.134
				c3.376-8.117,9.307-15.511,8.029-17.519C284.677,5.896,284.38,5.803,283.95,5.803L283.95,5.803z"/>
		</g>
		<g>
			<path fill="#4B0028" d="M257.796,97.6c-4.084,0-6.524-0.586-7.033-0.881c0.134-0.425,1.199-1.579,2.23-2.697
				c3.015-3.268,8.627-9.35,12.743-18.919c3.738-8.685,6.513-19.85,8.743-28.821c1.292-5.202,2.409-9.694,3.307-11.889
				c5.142-12.575,13.165-15.76,15.741-16.479c-0.69,2.252-2.253,8.655-0.819,16.921c3.203,18.459,0.606,44.776-8.243,53.025
				c-9.426,8.789-21.787,9.738-26.667,9.738C257.797,97.6,257.796,97.6,257.796,97.6z"/>
			<path fill="#231F20" d="M292.789,18.679c-0.757,2.847-1.865,8.808-0.575,16.243c3.181,18.333,0.641,44.434-8.091,52.574
				c-9.296,8.668-21.508,9.604-26.327,9.604c-3.072,0-5.298-0.35-6.292-0.634c0.39-0.515,1.133-1.319,1.857-2.104
				c3.035-3.29,8.685-9.414,12.834-19.061c3.754-8.722,6.535-19.909,8.769-28.898c1.289-5.183,2.401-9.659,3.285-11.82
				C282.809,23.43,289.678,19.793,292.789,18.679 M294.283,17.229h0.005H294.283z M294.283,17.229c0,0-10.617,1.462-16.961,16.975
				c-2.404,5.88-6.053,26.778-12.046,40.701c-6.282,14.608-15.879,20.804-14.967,22.083c0.335,0.47,3.256,1.112,7.486,1.112
				c7.288,0,18.463-1.904,27.009-9.873c9.35-8.716,11.498-35.591,8.395-53.477C291.443,24.627,294.283,17.229,294.283,17.229
				L294.283,17.229z"/>
		</g>
		<g>
			<path fill="#4B0028" d="M269.787,116.597c-1.201,0-2.197-0.07-2.961-0.209c-5.811-1.056-16.931-11.452-16.762-13.08
				c0.052-0.061,0.439-0.341,2.888-0.341c0.962,0,2.088,0.038,3.319,0.078c1.478,0.048,3.152,0.104,4.863,0.104
				c3.943,0,6.932-0.296,9.407-0.932c1.848-0.475,3.25-0.854,4.35-1.152c2.409-0.652,3.311-0.896,4.253-0.896
				c0.27,0,0.545,0.02,0.858,0.056c3.329,0.384,8.798,5.869,11.101,9.476c0.946,1.482,1.17,2.345,1.075,2.634
				c-0.096,0.17-1.091,1.171-10.843,3.007C277.156,116.127,272.84,116.597,269.787,116.597L269.787,116.597z"/>
			<path fill="#231F20" d="M279.143,100.668c0.233,0,0.488,0.017,0.801,0.053c2.563,0.295,6.784,4.064,9.455,7.46
				c1.785,2.27,2.245,3.528,2.298,3.907c-0.396,0.273-2.265,1.219-10.457,2.761c-4.148,0.781-8.43,1.248-11.454,1.248
				c-1.171,0-2.137-0.068-2.872-0.201c-5.314-0.966-14.983-9.856-16.228-12.285c0.332-0.07,0.986-0.145,2.264-0.145
				c0.951,0,2.093,0.038,3.303,0.078c1.481,0.049,3.161,0.104,4.88,0.104c3.986,0,7.015-0.301,9.531-0.947
				c1.85-0.476,3.254-0.855,4.355-1.154C277.383,100.908,278.267,100.668,279.143,100.668 M279.143,99.668
				c-1.465,0-2.804,0.542-8.727,2.063c-2.854,0.733-6.158,0.916-9.282,0.916c-3.113,0-6.047-0.181-8.183-0.182
				c-1.926,0-3.2,0.147-3.369,0.709c-0.551,1.809,11.129,12.609,17.154,13.705c0.823,0.149,1.864,0.217,3.051,0.217
				c3.284,0,7.681-0.52,11.639-1.265c5.068-0.954,10.875-2.276,11.226-3.341c0.728-2.199-7.847-12.215-12.593-12.763
				C279.725,99.689,279.431,99.668,279.143,99.668L279.143,99.668z"/>
		</g>
		<g>
			<path fill="#4B0028" d="M223.811,121.29c-0.032-0.011-0.065-0.019-0.099-0.021c-1.404-0.133-2.858-1.113-4.542-2.249
				c-0.861-0.581-1.837-1.239-2.902-1.844c-0.256-0.146-0.593-0.331-0.992-0.549c-3.353-1.839-12.259-6.725-11.966-10.133
				c0.091-1.059,1.167-1.948,3.199-2.645c0.334-0.115,0.803-0.173,1.395-0.173c1.443,0,3.449,0.332,5.771,0.716
				c3.121,0.516,6.657,1.101,10.169,1.122c3.519-0.021,7.055-0.605,10.176-1.122c2.322-0.384,4.328-0.716,5.771-0.716
				c0.592,0,1.061,0.058,1.394,0.172c2.033,0.697,3.109,1.587,3.2,2.646c0.293,3.409-8.612,8.294-11.965,10.133
				c-0.398,0.219-0.735,0.403-0.992,0.549c-1.067,0.606-2.044,1.265-2.906,1.846c-1.683,1.135-3.136,2.114-4.539,2.247
				c-0.036,0.003-0.07,0.01-0.103,0.021C223.873,121.288,223.831,121.289,223.811,121.29z"/>
			<path fill="#231F20" d="M239.79,104.175c0.536,0,0.951,0.049,1.232,0.146c1.256,0.431,2.773,1.165,2.864,2.215
				c0.176,2.046-3.763,5.294-11.708,9.652c-0.401,0.22-0.74,0.406-0.998,0.552c-1.083,0.616-2.069,1.28-2.938,1.867
				c-1.626,1.096-3.03,2.043-4.307,2.164c-0.03,0.003-0.059,0.007-0.087,0.013c-0.029-0.006-0.059-0.01-0.089-0.013
				c-1.277-0.121-2.682-1.068-4.309-2.166c-0.869-0.585-1.853-1.25-2.935-1.865c-0.258-0.146-0.597-0.333-0.998-0.553
				c-7.945-4.358-11.884-7.605-11.708-9.652c0.09-1.05,1.607-1.784,2.863-2.215c0.281-0.097,0.696-0.146,1.232-0.146
				c1.402,0,3.389,0.329,5.689,0.709c3.138,0.52,6.696,1.108,10.259,1.128c3.552-0.021,7.11-0.609,10.249-1.128
				C236.401,104.504,238.388,104.175,239.79,104.175 M239.79,103.175c-3.431,0-9.823,1.802-15.943,1.837
				c-6.12-0.036-12.512-1.837-15.943-1.837c-0.624,0-1.148,0.06-1.557,0.2c-10.835,3.714,6.325,12.333,9.674,14.235
				c3.146,1.788,5.348,3.939,7.645,4.156v0.042c0.062,0,0.122-0.018,0.182-0.021c0.062,0.002,0.122,0.021,0.183,0.021v-0.042
				c2.297-0.217,4.498-2.368,7.646-4.156c3.349-1.902,20.509-10.521,9.672-14.235C240.938,103.235,240.413,103.175,239.79,103.175
				L239.79,103.175z"/>
		</g>
		<g>
			<path fill="#4B0028" d="M205.185,29.873c-0.873-0.284-2.113-5.9-2.581-8.018c-0.144-0.648-0.272-1.229-0.383-1.695
				c-0.362-1.522-0.105-2.952,0.766-4.249c1.388-2.067,3.819-3.116,4.522-3.28c1.114,0.789,4.495,9.856,4.164,12.007
				C211.355,26.693,206.578,29.684,205.185,29.873z"/>
			<path fill="#231F20" d="M207.352,13.197c1.207,1.53,4.104,9.56,3.826,11.365c-0.258,1.674-4.43,4.355-5.846,4.768
				c-0.785-0.993-1.833-5.741-2.24-7.582c-0.144-0.651-0.273-1.236-0.385-1.702c-0.329-1.382-0.095-2.679,0.695-3.855
				C204.552,14.477,206.506,13.49,207.352,13.197 M207.547,12.118c-0.011,0-0.021,0.001-0.032,0.002
				c-1.188,0.185-7.027,2.92-5.781,8.156c0.684,2.853,2.005,10.098,3.446,10.098c0.018,0,0.035-0.001,0.052-0.003
				c1.461-0.182,6.568-3.287,6.934-5.657C212.528,22.364,208.769,12.118,207.547,12.118L207.547,12.118z"/>
		</g>
		<g>
			<path fill="#4B0028" d="M182.425,57.789c-1.041-0.85-4.591-12.96-3.709-18.766c0.132-0.867,1.08-2.429,2.177-4.237
				c1.167-1.921,2.619-4.313,3.633-6.783c4.876-11.897,5.543-18.874,5.566-21.661c2.155,2.575,7.688,10.544,10.635,27.216
				c0.173,0.983-2.204,3.351-4.502,5.641c-1.754,1.748-3.743,3.729-5.433,5.819c-2.073,2.563-3.918,5.749-5.402,8.308
				C184.244,55.304,182.95,57.538,182.425,57.789z"/>
			<path fill="#231F20" d="M190.536,7.702c0.727,0.973,1.637,2.333,2.622,4.138c2.174,3.981,5.166,10.996,7.076,21.804
				c0.086,0.77-2.485,3.332-4.362,5.202c-1.763,1.757-3.762,3.748-5.469,5.859c-2.097,2.594-3.954,5.797-5.446,8.372
				c-0.823,1.419-1.807,3.117-2.414,3.891c-1.254-2.461-4.133-12.602-3.333-17.87c0.117-0.769,1.085-2.364,2.11-4.052
				c1.175-1.937,2.639-4.347,3.668-6.853C189.231,17.844,190.308,11.158,190.536,7.702 M189.537,5c0,0,0.959,7.12-5.474,22.813
				c-1.972,4.801-5.544,9.175-5.842,11.134c-0.915,6.023,2.874,19.167,4.151,19.35c0.014,0.002,0.029,0.003,0.044,0.003
				c1.306,0,4.568-7.777,8.764-12.966c4.241-5.248,10.399-9.814,10.038-11.862C197.445,12.117,189.537,5,189.537,5L189.537,5z"/>
		</g>
		<g>
			<path fill="#4B0028" d="M175.471,34.217c-0.351-0.446-0.986-2.291-1.602-4.079c-0.655-1.9-1.47-4.265-2.487-6.713
				c-1.42-3.413-3.255-6.644-4.875-9.494c-1.942-3.418-3.777-6.646-3.195-7.564c0,0,0,0,0,0c0.005,0,0.109-0.064,0.433-0.064
				c3.822,0,17.988,7.518,18.123,10.266C182.065,20.487,177.023,33.39,175.471,34.217z"/>
			<path fill="#231F20" d="M163.745,6.803c4.005,0,17.511,7.503,17.624,9.792c0.163,3.236-3.968,14.36-5.78,16.782
				c-0.34-0.771-0.815-2.148-1.247-3.401c-0.657-1.907-1.475-4.28-2.499-6.743c-1.431-3.441-3.275-6.686-4.902-9.548
				c-1.419-2.497-3.331-5.859-3.25-6.88C163.708,6.804,163.726,6.803,163.745,6.803 M163.745,5.803c-0.43,0-0.727,0.093-0.855,0.294
				c-1.277,2.008,4.654,9.402,8.03,17.519c2.42,5.819,3.673,11.134,4.477,11.134c1.924,0,7.154-14.559,6.971-18.206
				C182.206,13.263,167.604,5.803,163.745,5.803L163.745,5.803z"/>
		</g>
		<g>
			<path fill="#4B0028" d="M189.898,97.6c-4.878,0-17.241-0.949-26.668-9.738c-8.849-8.25-11.446-34.566-8.242-53.025
				c1.433-8.264-0.129-14.664-0.82-16.918c2.581,0.727,10.613,3.935,15.742,16.476c0.897,2.194,2.014,6.687,3.307,11.889
				c2.229,8.971,5.004,20.136,8.742,28.821c4.115,9.567,9.727,15.65,12.742,18.917c1.032,1.119,2.097,2.273,2.231,2.699
				C196.423,97.013,193.984,97.6,189.898,97.6L189.898,97.6z"/>
			<path fill="#231F20" d="M154.904,18.679c3.112,1.115,9.982,4.751,14.543,15.903c0.884,2.161,1.996,6.637,3.284,11.82
				c2.234,8.989,5.014,20.176,8.768,28.897c4.148,9.646,9.798,15.77,12.833,19.059c0.725,0.786,1.469,1.592,1.859,2.106
				c-0.994,0.284-3.22,0.634-6.293,0.634c-4.819,0-17.03-0.936-26.327-9.604c-8.733-8.141-11.272-34.241-8.09-52.574
				C156.77,27.487,155.662,21.525,154.904,18.679 M153.41,17.229c0,0,2.841,7.398,1.086,17.521
				c-3.104,17.885-0.956,44.76,8.394,53.477c8.545,7.968,19.721,9.873,27.009,9.873c4.23,0,7.151-0.642,7.486-1.112
				c0.914-1.279-8.684-7.475-14.967-22.083c-5.993-13.923-9.641-34.821-12.045-40.701C164.028,18.691,153.41,17.229,153.41,17.229
				L153.41,17.229z"/>
		</g>
		<g>
			<path fill="#4B0028" d="M177.907,116.597c-3.053,0-7.369-0.47-11.545-1.256c-9.753-1.836-10.749-2.837-10.85-3.02
				c-0.091-0.276,0.133-1.138,1.078-2.619c2.302-3.608,7.772-9.094,11.103-9.479c0.313-0.036,0.588-0.056,0.858-0.056
				c0.942,0,1.843,0.244,4.252,0.896c1.1,0.297,2.501,0.677,4.349,1.152c2.475,0.636,5.465,0.932,9.408,0.932
				c1.711,0,3.385-0.055,4.863-0.104c1.232-0.041,2.357-0.078,3.32-0.078c2.446,0,2.834,0.28,2.895,0.366
				c0.161,1.604-10.959,12-16.771,13.056C180.104,116.527,179.108,116.597,177.907,116.597
				C177.908,116.597,177.908,116.597,177.907,116.597z"/>
			<path fill="#231F20" d="M168.552,100.668L168.552,100.668c0.875,0,1.759,0.239,4.122,0.879c1.101,0.298,2.504,0.678,4.354,1.153
				c2.517,0.646,5.546,0.947,9.533,0.947c1.719,0,3.398-0.055,4.879-0.104c1.21-0.04,2.353-0.078,3.303-0.078
				c1.277,0,1.931,0.075,2.263,0.145c-1.244,2.429-10.914,11.319-16.228,12.285c-0.734,0.133-1.7,0.201-2.871,0.201
				c-3.024,0-7.306-0.466-11.453-1.248c-8.142-1.532-10.038-2.476-10.45-2.756c0.058-0.418,0.528-1.672,2.289-3.91
				c2.671-3.396,6.894-7.166,9.458-7.462C168.064,100.685,168.318,100.668,168.552,100.668 M168.552,99.668
				c-0.288,0-0.581,0.021-0.915,0.06c-4.747,0.548-13.322,10.564-12.594,12.763c0.352,1.065,6.158,2.387,11.227,3.341
				c3.957,0.745,8.354,1.265,11.638,1.265c1.186,0,2.227-0.068,3.049-0.217c6.025-1.095,17.705-11.896,17.154-13.705
				c-0.168-0.561-1.443-0.709-3.368-0.709c-2.135,0-5.07,0.182-8.183,0.182c-3.125,0-6.429-0.183-9.284-0.916
				C171.355,100.21,170.016,99.668,168.552,99.668L168.552,99.668z"/>
		</g>
		<g>
			<path fill="#4B0028" d="M223.665,100.321c-10.323,0-21.164-5.363-28.293-13.996c-5.7-6.903-8.181-14.956-6.806-22.093
				c1.904-9.87,10.018-17.572,17.864-25.021c1.555-1.476,3.023-2.87,4.45-4.287c6.603-6.562,11.548-13.346,12.967-15.358
				c1.42,2.012,6.365,8.796,12.97,15.357c1.427,1.417,2.896,2.811,4.45,4.287c7.846,7.449,15.958,15.151,17.862,25.021
				c1.375,7.138-1.105,15.19-6.805,22.093c-7.129,8.633-17.971,13.997-28.294,13.997H223.665z"/>
			<path fill="#231F20" d="M223.847,20.428c1.825,2.539,6.518,8.791,12.618,14.851c1.431,1.421,2.901,2.817,4.458,4.295
				c7.788,7.394,15.842,15.041,17.715,24.752c1.347,6.991-1.095,14.893-6.7,21.68c-7.036,8.521-17.73,13.815-27.908,13.815h-0.364
				c-10.178,0-20.871-5.293-27.908-13.814c-5.604-6.788-8.047-14.689-6.701-21.68c1.874-9.712,9.928-17.358,17.717-24.752
				c1.557-1.478,3.028-2.874,4.459-4.295C217.33,29.219,222.022,22.967,223.847,20.428 M223.847,18.691
				c0,0-5.435,8.042-13.319,15.878c-8.668,8.606-20.139,17.571-22.453,29.567c-3.345,17.368,15.531,36.684,35.591,36.684h0.364
				c20.061,0,38.936-19.316,35.59-36.684c-2.313-11.996-13.783-20.961-22.45-29.567C229.281,26.733,223.847,18.691,223.847,18.691
				L223.847,18.691z"/>
		</g>
	</g>
	<defs>
		<filter id="Adobe_OpacityMaskFilter" filterUnits="userSpaceOnUse" x="-13" y="5.125" width="462.364" height="133.01">
			<feColorMatrix  type="matrix" values="1 0 0 0 0  0 1 0 0 0  0 0 1 0 0  0 0 0 1 0"/>
		</filter>
	</defs>
	<mask maskUnits="userSpaceOnUse" x="-13" y="5.125" width="462.364" height="133.01" id="SVGID_2_">
		<g filter="url(#Adobe_OpacityMaskFilter)">
			<g>
				<g>
					<path fill="#FFFFFF" d="M165.378,71.131c-0.407,0-0.696,0.03-0.869,0.087c-0.174,0.058-0.29,0.117-0.349,0.174
						c-0.637-0.578-1.214-1.187-1.735-1.824c-0.521-0.637-1.419-0.955-2.691-0.955c-0.983,0-1.91,0.289-2.777,0.869
						c-0.868,0.578-1.649,1.23-2.345,1.953c-0.694,0.724-1.273,1.375-1.735,1.954c-0.464,0.579-0.783,0.868-0.955,0.868
						c-0.173,0-0.318-0.058-0.436-0.173l-0.173-0.174c-0.058-0.521-0.117-1.012-0.174-1.476c-0.058-0.404-0.102-0.838-0.13-1.302
						c-0.03-0.463-0.073-0.838-0.13-1.129c-0.117-0.636-0.434-1.142-0.955-1.519c-0.521-0.376-1.129-0.564-1.824-0.564
						c-0.926,0-1.896,0.362-2.908,1.084c-1.014,0.725-1.939,1.562-2.777,2.518c-0.839,0.955-1.533,1.868-2.084,2.736
						c-0.551,0.868-0.824,1.447-0.824,1.736c0,0.291,0.145,0.493,0.434,0.608c0.289,0.116,0.666,0.174,1.129,0.174
						s0.912-0.029,1.346-0.087c0.434-0.057,0.766-0.086,0.998-0.086c1.099,0,1.866,0.247,2.301,0.738
						c0.059,0.066,0.08,0.158,0.131,0.229c-0.102-0.117-0.242-0.185-0.434-0.185c-0.521,0-1.1,0.348-1.736,1.042
						c-0.812,0.811-1.693,1.387-2.648,1.735c-0.955,0.347-2.099,0.522-3.43,0.522c-1.389,0-2.618-0.275-3.689-0.825
						c-1.07-0.549-1.968-1.229-2.69-2.041c-0.726-0.81-1.273-1.677-1.649-2.604c-0.379-0.925-0.565-1.793-0.565-2.605
						c0-0.173,0-0.404,0-0.694c0-0.289-0.042-0.592-0.13-0.911c-0.086-0.317-0.23-0.622-0.434-0.912
						c-0.203-0.289-0.536-0.462-0.998-0.521c-0.638,0-1.1,0.347-1.391,1.042c-0.289,0.694-0.52,1.274-0.693,1.737
						c-0.174,0.521-0.449,1.201-0.824,2.04c-0.379,0.84-0.84,1.666-1.391,2.475c-0.549,0.812-1.23,1.505-2.039,2.083
						c-0.812,0.58-1.766,0.868-2.867,0.868c-1.388,0-2.502-0.316-3.341-0.954c-0.84-0.636-1.477-1.375-1.91-2.214
						c-0.435-0.837-0.726-1.649-0.868-2.431c-0.146-0.781-0.218-1.316-0.218-1.606c0-0.52-0.188-1.07-0.563-1.649
						c-0.378-0.578-0.885-0.868-1.521-0.868c-0.638,0-1.272,0.507-1.909,1.519c-0.637,1.014-1.215,2.229-1.735,3.647
						c-0.521,1.418-0.94,2.908-1.259,4.471c-0.007,0.033-0.008,0.061-0.015,0.094c-0.786,0.918-1.597,1.82-2.46,2.684
						c-1.273,1.274-2.576,2.548-3.906,3.82c-0.06-1.619-0.088-3.255-0.088-4.905c0-1.65,0-3.312,0-4.992
						c0.521-0.81,0.983-1.562,1.391-2.257c0.346-0.636,0.65-1.215,0.91-1.736c0.262-0.521,0.391-0.926,0.391-1.215
						c0-0.578-0.043-1.142-0.129-1.693c-0.088-0.549-0.363-0.912-0.826-1.086h-0.26c-0.232,0-0.551,0.131-0.955,0.391
						c-0.406,0.261-0.811,0.71-1.215,1.346c-0.406,0.639-0.754,1.492-1.043,2.562c-0.289,1.071-0.464,2.417-0.521,4.037
						c-0.521,0.867-1.128,1.621-1.822,2.256c-0.639,0.58-1.404,1.101-2.301,1.563c-0.898,0.464-1.984,0.725-3.255,0.781
						c-1.217,0-2.331-0.23-3.343-0.694c-1.015-0.463-1.91-1.1-2.691-1.911c-0.781-0.81-1.39-1.765-1.823-2.865
						c-0.434-1.098-0.651-2.257-0.651-3.473c0-0.578,0.057-1.229,0.174-1.954c0.114-0.723,0.174-1.229,0.174-1.519
						c0-0.636-0.348-0.955-1.043-0.955c-0.464,0-0.998,0.348-1.605,1.042c-0.607,0.694-1.172,1.607-1.692,2.735
						c-0.521,1.127-0.956,2.431-1.302,3.907c-0.301,1.277-0.445,2.593-0.486,3.935c-0.683,0.276-1.431,0.449-2.293,0.449
						c-1.621,0-3.081-0.521-4.385-1.563c-1.302-1.042-2.401-2.431-3.299-4.167c-0.897-1.737-1.592-3.761-2.083-6.077
						c-0.493-2.314-0.737-4.775-0.737-7.379c0-2.72,0.158-5.427,0.478-8.118c0.317-2.691,0.999-5.946,2.039-9.767
						c0.175-0.52,0.262-0.983,0.262-1.389c0-0.463-0.16-0.854-0.478-1.172c-0.318-0.318-0.738-0.478-1.26-0.478
						c-0.464,0-0.897,0.16-1.303,0.478c-0.404,0.318-0.724,0.768-0.955,1.345c-0.173,0.348-0.549,1.346-1.127,2.996
						c-0.579,1.649-1.318,3.575-2.214,5.774c-0.897,2.2-1.909,4.529-3.038,6.989s-2.36,4.674-3.691,6.641
						c-1.1,1.679-2.287,3.329-3.559,4.948c-1.273,1.622-2.605,3.053-3.993,4.297c-1.391,1.245-2.838,2.257-4.343,3.039
						c-1.504,0.782-3.068,1.171-4.688,1.171c-1.678,0-3.139-0.36-4.384-1.084c-1.245-0.724-2.257-1.664-3.038-2.822
						c-0.781-1.158-1.361-2.503-1.736-4.037c-0.378-1.533-0.565-3.111-0.565-4.732c0-2.083,0.392-4.413,1.173-6.989
						c0.781-2.574,1.865-5.209,3.256-7.9c1.389-2.691,3.023-5.31,4.905-7.857c1.879-2.546,3.907-4.818,6.077-6.815
						s4.471-3.604,6.902-4.819c2.431-1.215,4.861-1.823,7.292-1.823c0.868,0,1.765,0.161,2.69,0.478
						c0.927,0.318,1.767,0.753,2.52,1.302c0.75,0.551,1.388,1.171,1.909,1.867c0.521,0.694,0.81,1.389,0.868,2.083
						c0.058,0.464,0.216,0.782,0.478,0.955c0.26,0.174,0.534,0.261,0.825,0.261c0.288,0,0.75-0.144,1.389-0.434
						c0.635-0.29,1.273-0.709,1.909-1.26c0.637-0.548,1.2-1.258,1.694-2.127c0.49-0.868,0.738-1.909,0.738-3.125
						c0-0.636-0.133-1.272-0.392-1.91c-0.261-0.636-0.682-1.215-1.259-1.736c-0.58-0.521-1.346-0.957-2.301-1.302
						c-0.954-0.348-2.1-0.521-3.43-0.521c-3.82,0-7.67,0.825-11.547,2.474c-3.878,1.65-7.627,3.85-11.243,6.597
						c-3.616,2.75-7.003,5.948-10.157,9.594c-3.155,3.646-5.904,7.453-8.248,11.417c-2.344,3.965-4.197,7.987-5.556,12.067
						c-1.36,4.081-2.041,7.944-2.041,11.59c0,1.506,0.159,3.054,0.478,4.644c0.317,1.594,0.883,3.113,1.693,4.558
						c1.157,2.026,2.633,3.458,4.428,4.298c1.794,0.838,3.703,1.259,5.729,1.259c2.431,0,5.022-0.738,7.772-2.214
						c2.747-1.476,5.453-3.501,8.116-6.078c2.661-2.575,5.179-5.643,7.553-9.202c2.374-3.56,4.397-7.423,6.077-11.591
						c0.289-0.521,0.578-0.781,0.868-0.781c0.173,0,0.261,0.117,0.261,0.347c0,0.406-0.13,1.159-0.391,2.258
						c-0.26,1.1-0.551,2.431-0.869,3.993c-0.316,1.563-0.607,3.287-0.867,5.167c-0.262,1.88-0.391,3.863-0.391,5.947
						c0,1.447,0.115,2.895,0.348,4.34c0.23,1.447,0.68,2.765,1.346,3.951c0.664,1.185,1.575,2.155,2.733,2.908
						c1.157,0.751,2.663,1.128,4.515,1.128c1.793,0,3.676-0.362,5.643-1.085c1.967-0.724,3.777-1.708,5.428-2.951
						c0.912-0.688,1.73-1.43,2.476-2.216c0.332,0.718,0.716,1.378,1.213,1.912c1.505,1.62,3.443,2.431,5.816,2.431
						c1.157,0,2.2-0.188,3.126-0.564c0.924-0.377,1.85-0.911,2.779-1.606c0.924-0.694,1.879-1.548,2.863-2.561s2.084-2.156,3.3-3.43
						c0.403-0.577,0.78-0.869,1.128-0.869c0.232,0,0.361,0.117,0.391,0.348c0.028,0.232,0.043,0.434,0.043,0.608
						c0,0.463,0.014,1.273,0.045,2.431c0.027,1.158,0.072,2.518,0.129,4.081c-1.562,1.562-3.082,3.197-4.558,4.905
						c-1.476,1.707-2.778,3.545-3.907,5.513c-1.128,1.967-2.025,4.109-2.69,6.425c-0.667,2.314-0.999,4.89-0.999,7.727
						c0,1.216,0.175,2.459,0.521,3.733c0.348,1.272,0.854,2.432,1.518,3.472c0.666,1.042,1.477,1.896,2.432,2.562
						c0.957,0.664,2.012,0.999,3.17,0.999c1.504,0,2.705-0.552,3.604-1.65c0.896-1.1,1.605-2.619,2.127-4.558
						c0.52-1.94,0.867-4.239,1.041-6.902s0.262-5.586,0.262-8.769c0-2.082-0.031-4.225-0.088-6.424
						c-0.058-2.201-0.117-4.486-0.174-6.859c0.462-0.464,0.926-0.955,1.389-1.476c0.463-0.521,0.955-1.042,1.477-1.562
						c1.051-1.107,2.06-2.156,3.032-3.159c-0.037,0.431-0.081,0.872-0.081,1.248c0,1.679,0.578,3.141,1.737,4.384
						c1.157,1.244,2.69,1.867,4.6,1.867c1.795,0,3.401-0.434,4.82-1.303c1.417-0.868,2.646-1.837,3.688-2.908
						c1.043-1.071,1.881-2.041,2.519-2.908c0.636-0.868,1.042-1.303,1.215-1.303c0.231,0,0.347,0.261,0.347,0.781
						c0.115,2.432,0.709,4.444,1.781,6.034c1.068,1.592,2.734,2.388,4.991,2.388c1.505,0,3.081-0.435,4.732-1.303
						c1.648-0.867,3.198-1.894,4.645-3.082c1.446-1.186,2.72-2.417,3.819-3.69c1.098-1.272,1.852-2.315,2.258-3.125
						c0.287-0.521,0.434-0.983,0.434-1.389c0-0.236-0.054-0.401-0.137-0.531c0.298,0.453,0.484,0.988,0.484,1.66l-2.432,10.505
						c0,0.867,0.463,1.519,1.389,1.953c0.926,0.434,1.967,0.652,3.125,0.652c1.389,0,2.72-0.305,3.993-0.912
						c1.274-0.608,1.911-1.549,1.911-2.822c0-0.405-0.145-1.011-0.435-1.823c-0.291-0.81-0.623-1.679-0.999-2.605
						c-0.376-0.925-0.708-1.867-0.997-2.821c-0.291-0.956-0.436-1.779-0.436-2.475c0-0.636,0.145-1.142,0.436-1.519
						c0.289-0.375,0.81-0.564,1.562-0.564c0.348,0,0.636,0.161,0.868,0.478c0.229,0.319,0.491,0.651,0.781,0.999
						c0.288,0.347,0.636,0.681,1.041,0.998c0.404,0.319,0.926,0.477,1.564,0.477c0.692,0,1.518-0.332,2.473-0.996
						c0.956-0.666,1.896-1.419,2.822-2.258c0.926-0.838,1.707-1.679,2.345-2.518c0.636-0.838,0.954-1.434,0.954-1.781
						C166.332,71.507,166.014,71.131,165.378,71.131z M96.445,96.829c0,2.083-0.029,4.152-0.088,6.208
						c-0.057,2.054-0.174,3.892-0.348,5.513c-0.174,1.62-0.389,2.937-0.65,3.95c-0.26,1.011-0.594,1.518-0.998,1.518
						c-0.694,0-1.26-0.318-1.693-0.954c-0.435-0.638-0.781-1.433-1.042-2.387c-0.26-0.956-0.448-1.969-0.563-3.039
						c-0.116-1.071-0.174-2.041-0.174-2.908c0-2.027,0.463-4.139,1.389-6.338c0.926-2.201,2.285-4.516,4.08-6.946
						c0.059,0.869,0.088,1.751,0.088,2.649C96.445,94.992,96.445,95.902,96.445,96.829z"/>
				</g>
				<g>
					<path fill="#FFFFFF" d="M192.637,73.432c0.462-0.665,0.692-1.315,0.692-1.953c0-0.29-0.058-0.536-0.174-0.739
						c-0.116-0.203-0.345-0.361-0.692-0.477c-0.291,0-0.552,0.116-0.781,0.347c-0.118,0.117-0.232,0.261-0.348,0.434
						c-1.158,0-2.186-0.173-3.082-0.52c-0.898-0.348-1.665-0.767-2.301-1.26c-0.637-0.49-1.129-1.026-1.477-1.605
						c-0.348-0.578-0.521-1.128-0.521-1.65c0-0.114-0.029-0.316-0.086-0.607c-0.059-0.289-0.16-0.577-0.303-0.867
						c-0.146-0.289-0.306-0.55-0.479-0.781c-0.173-0.23-0.405-0.348-0.694-0.348s-0.738,0.291-1.346,0.869s-1.201,1.288-1.779,2.127
						c-0.578,0.838-1.085,1.722-1.52,2.647c-0.434,0.927-0.652,1.738-0.652,2.432c0,0.58,0.219,1.215,0.652,1.91
						c0.435,0.695,0.926,1.345,1.477,1.953c0.549,0.609,1.113,1.159,1.693,1.65c0.576,0.492,1.041,0.854,1.388,1.085
						c0,0.926-0.216,1.52-0.651,1.78c-0.434,0.26-1.027,0.391-1.779,0.391c-1.041,0-1.881-0.275-2.518-0.825
						c-0.637-0.549-1.143-1.229-1.52-2.04c-0.377-0.81-0.694-1.693-0.955-2.648c-0.26-0.955-0.521-1.837-0.781-2.647
						c-0.26-0.811-0.609-1.49-1.042-2.041c-0.433-0.55-1.027-0.825-1.779-0.825c-0.695,0-1.245,0.203-1.649,0.607
						c-0.405,0.406-0.693,0.753-0.867,1.042c-0.059,0.173-0.174,0.434-0.348,0.781s-0.378,0.725-0.609,1.128
						c-0.23,0.406-0.478,0.812-0.736,1.215c-0.26,0.406-0.479,0.725-0.652,0.955c-0.29,0.406-0.433,0.84-0.433,1.302
						c0,0.348,0.1,0.623,0.304,0.825c0.201,0.204,0.446,0.363,0.736,0.478c0.291,0.174,0.609,0.26,0.955,0.26
						c0.404,0.059,0.638,0.232,0.695,0.522c0.057,0.29,0.088,0.579,0.088,0.868c0,0.638,0.055,1.605,0.174,2.908
						c0.114,1.302,0.402,2.604,0.867,3.907c0.461,1.302,1.172,2.444,2.126,3.429c0.955,0.984,2.302,1.477,4.037,1.477
						c1.679,0,3.04-0.45,4.081-1.347c1.043-0.898,1.867-1.967,2.475-3.212c0.607-1.244,1.069-2.531,1.389-3.864
						c0.318-1.331,0.594-2.431,0.824-3.299c0.059-0.174,0.203-0.376,0.436-0.608l0.26-0.259c0.984-0.29,1.938-0.696,2.864-1.215
						c0.927-0.521,1.767-1.099,2.519-1.737C191.563,74.749,192.172,74.098,192.637,73.432z"/>
				</g>
				<g>
					<path fill="#FFFFFF" d="M279.971,81.375c-0.753,0-1.389,0.26-1.91,0.782c-0.404,0.29-0.985,0.709-1.735,1.258
						c-0.754,0.551-1.62,0.825-2.604,0.825c-0.695,0-1.317-0.173-1.867-0.521c-0.551-0.347-1.012-0.766-1.389-1.258
						c-0.378-0.492-0.682-1.028-0.912-1.606c-0.232-0.579-0.347-1.1-0.347-1.563c0-0.348,0.056-0.738,0.174-1.172
						c0.114-0.433,0.173-0.853,0.173-1.259c0-0.289-0.059-0.534-0.173-0.738c-0.118-0.202-0.405-0.303-0.868-0.303
						c-0.639,0-1.129,0.318-1.477,0.955c-0.348,0.637-0.752,1.317-1.217,2.041c-0.463,0.723-1.055,1.403-1.779,2.04
						c-0.723,0.637-1.779,0.955-3.168,0.955c-3.184,0-4.775-1.505-4.775-4.515c0-1.852,0.449-3.37,1.346-4.557
						c0.898-1.186,2.098-1.78,3.604-1.78c0.984,0,1.779,0.188,2.387,0.564c0.607,0.378,1.143,0.797,1.606,1.259
						c0.462,0.464,0.897,0.883,1.302,1.26c0.406,0.377,0.869,0.563,1.391,0.563c0.809,0,1.619-0.434,2.43-1.301
						c0.811-0.869,1.217-1.795,1.217-2.779c0-0.925-0.377-1.823-1.129-2.691c-0.754-0.868-2.289-1.331-4.604-1.389
						c-1.04,0-2.574,0.434-4.6,1.301c-2.027,0.869-4.066,2.143-6.122,3.821c-2.054,1.679-3.849,3.72-5.38,6.121
						c-1,1.563-1.639,3.282-1.988,5.126c-0.244,0.072-0.516,0.167-0.834,0.299c-0.693,0.29-1.272,0.434-1.736,0.434
						c-2.432,0-4.426-0.694-5.99-2.083c-1.562-1.389-2.836-3.182-3.818-5.383c1.271-2.951,2.342-6.046,3.211-9.289
						c0.869-3.241,1.562-6.324,2.083-9.246c0.522-2.923,0.897-5.557,1.128-7.901c0.232-2.344,0.349-4.124,0.349-5.34
						c0-0.81-0.06-1.706-0.174-2.69c-0.116-0.984-0.335-1.91-0.651-2.779c-0.318-0.867-0.724-1.605-1.215-2.213
						c-0.492-0.607-1.114-0.912-1.867-0.912c-1.159,0-2.2,0.551-3.126,1.649c-0.925,1.1-1.767,2.561-2.517,4.385
						c-0.752,1.823-1.419,3.907-1.997,6.25c-0.579,2.343-1.056,4.761-1.433,7.249c-0.377,2.49-0.666,4.936-0.868,7.337
						s-0.304,4.587-0.304,6.554c0,2.141,0.072,4.182,0.217,6.121s0.391,3.747,0.738,5.426c-0.985,0.811-1.969,1.215-2.953,1.215
						c-0.172,0-0.506-0.044-0.996-0.131c-0.492-0.087-1-0.317-1.521-0.694c-0.52-0.375-0.984-0.94-1.389-1.693
						c-0.404-0.751-0.607-1.765-0.607-3.038c0-0.751,0.188-1.606,0.564-2.561c0.375-0.956,1.316-1.895,2.821-2.822
						c0.29-0.172,0.739-0.462,1.346-0.868c0.608-0.404,0.911-0.839,0.911-1.302c-0.172-0.636-0.52-0.955-1.041-0.955
						c-0.869,0-2.055,0.449-3.559,1.345c-1.506,0.899-2.996,2.056-4.473,3.474s-2.766,3.009-3.863,4.774
						c-0.518,0.83-0.902,1.657-1.175,2.479c-0.812,0.896-1.644,1.721-2.515,2.425c-1.07,0.869-2.502,1.302-4.298,1.302
						c-1.388,0-2.618-0.317-3.688-0.955c-1.072-0.636-1.953-1.476-2.648-2.518c1.736-1.852,3.17-3.486,4.298-4.904
						s2.039-2.721,2.735-3.908c0.694-1.186,1.185-2.271,1.475-3.255c0.289-0.983,0.434-1.997,0.434-3.039
						c0-0.926-0.303-1.533-0.91-1.823c-0.607-0.29-1.23-0.434-1.865-0.434c-1.796,0-3.604,0.666-5.428,1.997
						c-1.824,1.333-3.459,3.01-4.906,5.035c-1.447,2.027-2.619,4.226-3.515,6.598c-0.897,2.374-1.347,4.631-1.347,6.772
						c0,1.158,0.16,2.257,0.478,3.299c0.317,1.041,0.825,1.938,1.52,2.691c0.694,0.751,1.606,1.345,2.735,1.779
						s2.502,0.65,4.124,0.65c1.851,0,3.603-0.376,5.252-1.127c1.649-0.753,3.169-1.693,4.558-2.822
						c1.164-0.945,2.203-2.004,3.162-3.132c0.051,0.396,0.1,0.792,0.18,1.179c0.201,0.983,0.55,1.866,1.043,2.647
						c0.49,0.782,1.128,1.418,1.908,1.91c0.781,0.492,1.779,0.738,2.996,0.738c2.314,0,4.429-0.564,6.338-1.694
						c1.91-1.128,3.617-2.618,5.123-4.471c0.809,1.911,1.88,3.43,3.211,4.558c1.331,1.129,3.009,1.694,5.035,1.694
						c1.505,0,2.895-0.319,4.168-0.956c1.271-0.638,2.4-1.361,3.385-2.171c0.506-0.423,0.984-0.878,1.453-1.352
						c0.143,1.289,0.64,2.384,1.543,3.261c1.068,1.043,2.475,1.563,4.209,1.563c1.216,0,2.359-0.346,3.43-1.042
						c1.07-0.694,2.068-1.476,2.994-2.343c0.927-0.869,1.707-1.65,2.346-2.344c0.636-0.695,1.129-1.042,1.476-1.042
						c0.288,0,0.435,0.117,0.435,0.347c0,0.753,0.027,1.562,0.087,2.431c0.056,0.869,0.229,1.663,0.521,2.388
						c0.29,0.723,0.738,1.331,1.346,1.823c0.607,0.491,1.461,0.738,2.561,0.738c1.273,0,2.475-0.291,3.604-0.869
						c1.129-0.58,2.215-1.316,3.256-2.215c1.042-0.896,2.011-1.88,2.908-2.951c0.896-1.07,1.723-2.069,2.475-2.995
						c0.348-0.521,0.521-0.926,0.521-1.215C281.014,81.636,280.665,81.375,279.971,81.375z M198.537,77.99
						c-0.464-1.157-0.693-2.488-0.693-3.994c0-0.521,0.056-1.128,0.174-1.823c0.115-0.694,0.303-1.346,0.562-1.953
						c0.262-0.609,0.652-1.115,1.174-1.52c0.52-0.404,1.156-0.607,1.908-0.607c0.928,0,1.391,0.753,1.391,2.257
						c0,0.406-0.131,0.998-0.391,1.779c-0.26,0.781-0.607,1.578-1.043,2.388c-0.434,0.811-0.926,1.549-1.475,2.214
						C199.594,77.396,199.059,77.815,198.537,77.99z M232.482,63.752c-0.23-3.067-0.348-5.961-0.348-8.683
						c0-0.983,0.088-2.257,0.262-3.82c0.174-1.563,0.446-3.095,0.825-4.601c0.376-1.504,0.854-2.806,1.433-3.907
						c0.578-1.099,1.242-1.65,1.996-1.65c0.693,0,1.259,0.709,1.692,2.127c0.435,1.419,0.651,3.776,0.651,7.076
						c0,0.753-0.117,1.955-0.348,3.603c-0.231,1.65-0.563,3.518-0.997,5.6c-0.435,2.084-0.956,4.27-1.564,6.556
						c-0.606,2.287-1.316,4.442-2.126,6.468C233.206,69.741,232.713,66.82,232.482,63.752z"/>
				</g>
				<g>
					<path fill="#FFFFFF" d="M446.365,76.608c-0.754,0-1.391,0.262-1.911,0.783c-0.405,0.29-0.983,0.708-1.735,1.258
						c-0.753,0.55-1.622,0.825-2.605,0.825c-0.695,0-1.316-0.174-1.865-0.521c-0.552-0.348-1.014-0.766-1.391-1.259
						c-0.375-0.49-0.682-1.027-0.91-1.605c-0.232-0.58-0.348-1.1-0.348-1.564c0-0.348,0.057-0.737,0.174-1.172
						c0.115-0.434,0.174-0.852,0.174-1.258c0-0.289-0.059-0.535-0.174-0.737c-0.117-0.203-0.406-0.304-0.869-0.304
						c-0.638,0-1.129,0.319-1.477,0.956c-0.347,0.637-0.752,1.317-1.214,2.04c-0.464,0.725-1.058,1.403-1.78,2.041
						c-0.726,0.637-1.779,0.955-3.17,0.955c-3.183,0-4.773-1.505-4.773-4.516c0-1.851,0.447-3.37,1.344-4.557
						c0.897-1.185,2.098-1.781,3.604-1.781c0.984,0,1.78,0.189,2.387,0.565c0.609,0.377,1.143,0.796,1.607,1.258
						c0.463,0.464,0.896,0.884,1.301,1.26c0.405,0.376,0.869,0.563,1.391,0.563c0.811,0,1.619-0.433,2.432-1.302
						c0.809-0.869,1.214-1.793,1.214-2.778c0-0.924-0.376-1.823-1.129-2.69c-0.751-0.869-2.286-1.332-4.601-1.39
						c-1.043,0-2.575,0.436-4.602,1.303c-2.025,0.869-4.066,2.142-6.119,3.82c-2.058,1.679-3.85,3.72-5.383,6.121
						c-1.279,2.002-1.992,4.249-2.205,6.713c-1.684-0.215-3.098-0.822-4.219-1.852c-1.42-1.302-2.576-2.719-3.472-4.254
						c-0.899-1.532-1.65-2.938-2.257-4.21c-0.609-1.272-1.29-1.91-2.042-1.91c-0.404,0-0.897,0.291-1.476,0.869
						c-0.578,0.579-1.215,1.303-1.91,2.17c-0.695,0.869-1.388,1.795-2.084,2.779c-0.693,0.985-1.376,1.896-2.04,2.734
						c-0.665,0.84-1.259,1.55-1.78,2.127c-0.519,0.581-0.926,0.869-1.215,0.869c-0.115,0-0.232-1.128-0.348-3.386
						c-0.115-2.258-0.23-5.035-0.347-8.335c0.869-1.562,1.909-3.689,3.126-6.381c1.215-2.691,2.387-5.613,3.516-8.769
						c1.129-3.153,2.084-6.337,2.865-9.549c0.781-3.211,1.172-6.091,1.172-8.639c0-2.372-0.421-4.281-1.259-5.73
						c-0.841-1.446-2.302-2.169-4.384-2.169c-1.273,0-2.359,0.781-3.256,2.343c-0.898,1.563-1.65,3.561-2.258,5.991
						c-0.607,2.431-1.085,5.122-1.432,8.074c-0.348,2.953-0.607,5.832-0.781,8.64c-0.174,2.806-0.277,5.369-0.304,7.682
						c-0.03,2.315-0.044,4.024-0.044,5.123c0,2.835,0.044,5.469,0.13,7.899c0.017,0.464,0.034,0.905,0.049,1.346
						c-0.233,0.099-0.466,0.245-0.698,0.479c-0.693,0.694-1.389,1.361-2.083,1.997c-0.638,0.521-1.318,0.998-2.04,1.432
						c-0.725,0.434-1.432,0.652-2.127,0.652c-0.117,0-0.174-0.144-0.174-0.434c0-0.231,0.158-0.941,0.477-2.127
						c0.318-1.187,0.479-2.649,0.479-4.384c0-1.157-0.304-2.33-0.911-3.518c-0.608-1.186-1.36-2.257-2.257-3.212
						c-0.899-0.955-1.854-1.721-2.867-2.301c-1.012-0.578-1.896-0.867-2.646-0.867c-0.406,0-1.057,0.39-1.953,1.171
						c-0.898,0.782-1.867,1.753-2.91,2.908c-0.914,1.018-1.857,2.115-2.816,3.267c-0.462,0.055-0.881,0.177-1.22,0.424
						c-0.434,0.319-0.882,0.478-1.345,0.478c-0.289,0-0.521-0.261-0.695-0.781c-0.637-1.911-1.533-3.545-2.689-4.905
						c-1.16-1.359-2.953-2.042-5.384-2.042c-1.274,0-2.345,0.378-3.214,1.129c-0.867,0.754-1.302,1.795-1.302,3.126v0.347
						c-1.215,0-2.431,0.464-3.646,1.39c-1.217,0.926-2.301,2.055-3.256,3.386c-0.599,0.834-1.097,1.715-1.547,2.619
						c-0.165,0.057-0.328,0.136-0.492,0.245c-0.348,0.232-0.726,0.478-1.13,0.739c-0.405,0.26-0.812,0.506-1.215,0.737
						c-0.407,0.231-0.841,0.348-1.302,0.348c-1.103,0-2.172-0.159-3.215-0.477c-1.041-0.317-2.054-0.768-3.037-1.346
						c1.793-3.067,3.184-6.105,4.166-9.116c0.983-3.009,1.477-5.786,1.477-8.335c0-3.761-0.68-7.407-2.039-10.938
						c-1.362-3.531-3.142-6.829-5.34-9.897c-2.201-3.069-4.732-5.874-7.596-8.421c-2.867-2.548-5.789-4.731-8.769-6.556
						c-2.983-1.824-5.935-3.226-8.856-4.211c-2.924-0.983-5.572-1.476-7.944-1.476c-2.721,0-5.426,0.752-8.117,2.257
						c-2.692,1.507-5.149,3.256-7.38,5.254c-2.227,1.995-4.136,3.992-5.729,5.99c-1.594,1.996-2.648,3.487-3.17,4.47
						c-0.058,0.06-0.086,0.117-0.086,0.174v0.436c0,0.404,0.188,0.767,0.562,1.084c0.379,0.319,0.826,0.478,1.347,0.478
						c0.405,0,0.683-0.13,0.825-0.391c0.145-0.26,0.303-0.506,0.477-0.737c0.232-0.521,0.564-1.114,1-1.78
						c0.434-0.665,0.896-1.315,1.389-1.954c0.492-0.636,0.969-1.229,1.432-1.779c0.463-0.55,0.869-0.968,1.216-1.258
						c1.796-1.796,3.458-2.981,4.992-3.562c1.533-0.577,2.907-0.867,4.124-0.867c2.719,0,5.627,0.708,8.725,2.126
						c3.096,1.419,6.164,3.285,9.203,5.599c3.039,2.316,5.976,4.949,8.812,7.901c2.835,2.951,5.323,5.947,7.466,8.985
						c2.141,3.04,3.85,5.99,5.123,8.856c1.272,2.864,1.91,5.369,1.91,7.511c0,1.504-0.204,2.937-0.607,4.296
						c-0.406,1.361-0.955,2.679-1.65,3.951c-1.389-0.984-2.777-2.026-4.168-3.126c-1.389-1.098-2.82-2.126-4.297-3.082
						c-1.476-0.955-3.009-1.736-4.602-2.345c-1.593-0.607-3.312-0.91-5.165-0.91c-0.985,0-1.909,0.072-2.778,0.217
						c-0.869,0.145-1.736,0.361-2.604,0.651c-0.231-2.895-0.464-5.861-0.694-8.9c-0.232-3.039-0.434-5.845-0.607-8.421
						c-0.175-2.575-0.319-4.732-0.434-6.468c-0.117-1.736-0.175-2.748-0.175-3.038c0-0.174-0.03-0.462-0.087-0.869
						c-0.059-0.403-0.158-0.794-0.305-1.173c-0.145-0.374-0.348-0.722-0.607-1.041c-0.26-0.316-0.621-0.477-1.084-0.477
						c-0.232,0-0.521,0.102-0.869,0.303c-0.348,0.203-0.682,0.478-0.998,0.825c-0.318,0.348-0.594,0.723-0.826,1.128
						c-0.23,0.405-0.346,0.812-0.346,1.215c0,0.638,0.174,1.013,0.52,1.128c0.348,0.118,0.58,0.521,0.695,1.216
						c0,0.117,0.073,0.999,0.219,2.649c0.143,1.647,0.332,3.733,0.563,6.25c0.231,2.518,0.49,5.297,0.78,8.334
						c0.291,3.038,0.551,6.005,0.783,8.899c-1.969,1.1-3.721,2.489-5.254,4.167c-1.535,1.68-2.837,3.459-3.906,5.341
						c-1.07,1.881-1.896,3.775-2.475,5.687c-0.579,1.909-0.869,3.645-0.869,5.209c0,3.181,0.839,5.642,2.519,7.378
						c1.679,1.736,4.167,2.604,7.466,2.604c4.805,0,9.305-1.084,13.501-3.255c4.196-2.171,7.943-4.906,11.243-8.204
						c0.984,0.52,1.953,0.939,2.908,1.258c0.955,0.317,1.895,0.478,2.82,0.478c1.738,0,3.459-0.434,5.168-1.303
						c1.705-0.869,3.24-1.895,4.6-3.082c0.45-0.391,0.826-0.787,1.219-1.183c0.115,2.524,0.817,4.402,2.169,5.567
						c1.476,1.271,3.168,1.91,5.079,1.91c1.562,0,3.109-0.421,4.644-1.259c1.534-0.84,2.952-1.91,4.255-3.212
						c1.303-1.302,2.459-2.749,3.472-4.341c1.013-1.591,1.779-3.111,2.301-4.559c0.464,0,0.983-0.201,1.563-0.607
						c0.004-0.003,0.007-0.006,0.01-0.009c0.115,0.036,0.24,0.096,0.336,0.096c0.291,0,0.521-0.101,0.695-0.303
						s0.316-0.361,0.434-0.479c0.116-0.114,0.319-0.304,0.609-0.563c0.288-0.26,0.592-0.565,0.91-0.912
						c0.317-0.347,0.637-0.68,0.955-0.998c0.317-0.317,0.565-0.565,0.738-0.739c0.289-0.348,0.577-0.521,0.867-0.521
						c0.464,0,1.1,0.204,1.912,0.609c0.81,0.404,1.605,0.998,2.387,1.779s1.461,1.722,2.039,2.821
						c0.578,1.101,0.869,2.345,0.869,3.733c0,0.406-0.086,0.754-0.26,1.042c-0.174,0.29-0.493,0.434-0.957,0.434
						c-0.81,0-1.549-0.201-2.213-0.607c-0.666-0.405-1.258-0.896-1.78-1.476c-0.521-0.577-0.97-1.142-1.346-1.692
						c-0.376-0.549-0.651-0.97-0.825-1.26c-0.29-0.402-0.578-0.606-0.866-0.606c-0.233,0-0.581,0.173-1.043,0.521
						c-0.174,0.117-0.563,0.405-1.172,0.869c-0.608,0.463-1.246,0.984-1.91,1.562c-0.667,0.578-1.245,1.172-1.735,1.779
						c-0.492,0.607-0.739,1.085-0.739,1.433c0,2.547,0.796,4.398,2.389,5.557c1.591,1.156,3.604,1.735,6.034,1.735
						c1.736,0,3.602-0.274,5.599-0.825c1.997-0.55,3.936-1.344,5.816-2.387c1.882-1.043,3.589-2.314,5.124-3.819
						c0.854-0.84,1.585-1.751,2.216-2.717c0.013,0.271,0.025,0.549,0.036,0.806c0.089,1.794,0.174,3.242,0.262,4.342
						c0.086,1.099,0.131,1.765,0.131,1.996c0.057,0.405,0.188,0.68,0.391,0.824c0.201,0.144,0.447,0.219,0.738,0.219
						c0.578,0,1.041-0.174,1.39-0.522c0.114-0.174,0.478-0.607,1.085-1.302c0.606-0.695,1.258-1.461,1.953-2.301
						c0.695-0.837,1.33-1.605,1.91-2.3c0.578-0.693,0.954-1.128,1.128-1.302c0.405-0.289,0.665-0.434,0.78-0.434
						c0.174,0,0.348,0.174,0.521,0.521c0.81,2.431,2.084,4.47,3.822,6.12c1.735,1.65,3.934,2.476,6.596,2.476
						c1.68,0,3.141-0.276,4.385-0.826c0.677-0.299,1.273-0.633,1.824-0.992c0.139,0.173,0.267,0.354,0.432,0.515
						c1.07,1.042,2.475,1.562,4.211,1.562c1.216,0,2.357-0.346,3.43-1.041c1.07-0.695,2.067-1.476,2.996-2.345
						c0.924-0.867,1.705-1.65,2.342-2.343c0.637-0.695,1.129-1.042,1.477-1.042c0.289,0,0.434,0.117,0.434,0.348
						c0,0.752,0.029,1.562,0.087,2.431s0.231,1.664,0.521,2.387c0.288,0.724,0.737,1.331,1.345,1.824
						c0.609,0.491,1.463,0.738,2.562,0.738c1.271,0,2.473-0.292,3.604-0.868c1.129-0.58,2.213-1.318,3.254-2.215
						c1.043-0.897,2.011-1.879,2.91-2.95c0.895-1.072,1.72-2.07,2.473-2.996c0.348-0.521,0.521-0.925,0.521-1.214
						C447.406,76.87,447.059,76.608,446.365,76.608z M313.494,84.074c-1.709,0.695-3.141,1.043-4.298,1.043
						c-1.507,0-3.038-0.247-4.603-0.738c-1.562-0.492-2.965-1.172-4.21-2.041s-2.272-1.895-3.083-3.082
						c-0.811-1.186-1.214-2.475-1.214-3.863c0-2.084,0.462-3.487,1.389-4.21c0.926-0.724,1.968-1.086,3.126-1.086h0.086
						c0.115,0,0.174,0.03,0.174,0.088c0.23,2.257,0.404,4.138,0.521,5.642c0.115,1.507,0.201,2.402,0.262,2.693
						c0.055,0.405,0.244,0.737,0.562,0.997c0.318,0.261,0.709,0.391,1.173,0.391c0.403,0,0.766-0.144,1.085-0.434
						c0.316-0.291,0.477-0.781,0.477-1.476c0-0.116-0.044-0.81-0.129-2.083c-0.086-1.274-0.219-2.866-0.393-4.776
						c1.102,0.521,2.229,1.172,3.389,1.954c1.156,0.781,2.343,1.621,3.559,2.518c1.215,0.897,2.444,1.822,3.689,2.778
						c1.243,0.956,2.475,1.867,3.689,2.735C316.951,82.397,315.199,83.381,313.494,84.074z M358.248,75.046
						c-0.172,0.405-0.449,0.811-0.824,1.214c-0.377,0.407-0.912,0.739-1.607,0.999c-0.692,0.261-1.562,0.392-2.604,0.392
						c-0.693,0-1.359-0.203-1.996-0.607c-0.639-0.405-1.188-0.926-1.65-1.564c-0.463-0.636-0.84-1.344-1.128-2.127
						c-0.29-0.781-0.434-1.547-0.434-2.3c0-0.983,0.13-1.881,0.39-2.692c0.26-0.809,0.594-1.359,0.998-1.65
						c0.232,1.969,1.07,3.691,2.518,5.165c1.447,1.477,3.646,2.215,6.6,2.215C358.51,74.323,358.422,74.641,358.248,75.046z
						 M390.368,57.51c0-2.894,0.058-5.745,0.174-8.552s0.304-5.326,0.565-7.554c0.26-2.227,0.621-4.022,1.084-5.383
						c0.463-1.359,1.043-2.039,1.736-2.039c0.984,0,1.664,0.434,2.041,1.302c0.377,0.867,0.563,2.026,0.563,3.472
						c0,1.621-0.202,3.488-0.607,5.6c-0.405,2.114-0.911,4.27-1.519,6.467c-0.608,2.201-1.275,4.341-1.997,6.426
						c-0.726,2.083-1.405,3.905-2.041,5.469V57.51z"/>
				</g>
			</g>
		</g>
	</mask>
	<linearGradient id="SVGID_3_" gradientUnits="userSpaceOnUse" x1="218.1821" y1="5.125" x2="218.1821" y2="138.1348">
		<stop  offset="0.05" style="stop-color:#F4DFB2"/>
		<stop  offset="0.1487" style="stop-color:#F4D49E"/>
		<stop  offset="0.4356" style="stop-color:#F5B867"/>
		<stop  offset="0.6834" style="stop-color:#F6A33F"/>
		<stop  offset="0.8797" style="stop-color:#F69727"/>
		<stop  offset="1" style="stop-color:#F6921E"/>
	</linearGradient>
	<rect x="-13" y="5.125" mask="url(#SVGID_2_)" fill="url(#SVGID_3_)" width="462.364" height="133.01"/>
</g>
<g id="Colors">
</g>
<g id="typography_1_">
	<g id="_x3C_Type_x3E_">
	</g>
</g>
</svg>
